<svg width="585" height="483" viewBox="0 0 585 483" fill="none" xmlns="http://www.w3.org/2000/svg">
<path opacity="0.5" d="M0 301.5L309.772 482.042L584.509 323.487L272.242 145L0 301.5Z" fill="#C4A2FC"/>
<path style="mix-blend-mode:multiply" d="M486.495 305.765C462.916 319.515 446.059 328.733 409.809 349.436C437.263 366.11 458.537 381.448 461.618 383.269L543.109 335.453C536.773 332.122 515.848 320.193 486.495 305.765Z" fill="url(#paint0_linear_69_47)"/>
<path style="mix-blend-mode:multiply" d="M127.535 375.775L196.839 335.221C191.569 332.451 181.203 322.845 161.731 312.678C161.694 312.815 161.629 312.943 161.538 313.053C161.448 313.164 161.336 313.253 161.208 313.317C142.479 323.646 123.795 333.975 105.156 344.304C100.778 346.764 94.0932 351.373 89.792 353.988C102.289 360.863 111.724 367.757 127.535 375.775Z" fill="url(#paint1_linear_69_47)"/>
<path style="mix-blend-mode:multiply" d="M237.333 439.82C242.777 443.52 249.733 446.754 255.08 450.472L290.788 429.517C285.247 426.593 266.918 416.232 241.208 403.527C229.757 410.209 219.222 415.877 207.5 422.5C217.284 428 227 434 237.333 439.82Z" fill="url(#paint2_linear_69_47)"/>
<path d="M5.60764 78.7095L7.08014 159.875C7.09849 160.735 7.33375 161.577 7.76411 162.322C8.19447 163.068 8.80602 163.692 9.54211 164.138C10.2782 164.584 11.115 164.837 11.975 164.874C12.835 164.911 13.6905 164.73 14.462 164.349L83.4564 129.992C84.6003 129.421 85.5587 128.538 86.2206 127.444C86.8825 126.351 87.2206 125.092 87.1958 123.814L85.7233 42.61C85.7081 41.6721 85.4541 40.7535 84.9851 39.941C84.5162 39.1285 83.8478 38.4489 83.0431 37.9663C82.2384 37.4836 81.3239 37.214 80.386 37.1827C79.4481 37.1515 78.5177 37.3597 77.6826 37.7877L9.26952 72.6477C8.15803 73.2208 7.22731 74.0908 6.58084 75.1609C5.93438 76.231 5.5975 77.4594 5.60764 78.7095Z" fill="#986DE8"/>
<path d="M75.222 91.0074C62.0857 94.7065 66.6194 109.29 57.1838 117.036C45.6944 126.526 41.2963 99.703 27.2688 101.349C10.3545 103.286 7.08008 159.837 7.08008 159.837C9.75383 166.247 14.462 164.31 14.462 164.31L87.2926 128.036L86.7307 96.7981C83.6694 93.2927 79.8913 90.5426 75.222 91.0074Z" fill="#441BB9"/>
<path opacity="0.3" d="M75.222 91.0074C62.0857 94.7065 66.6194 109.29 57.1838 117.036C45.6944 126.526 41.2963 99.703 27.2688 101.349C10.3545 103.286 7.08008 159.837 7.08008 159.837C7.93693 166.483 13.5 165 14.462 164.31C15.4239 163.62 87.2926 128.036 87.2926 128.036L86.7307 96.7981C83.6694 93.2927 79.8913 90.5426 75.222 91.0074Z" fill="#31126F"/>
<path d="M423.488 269.84C421.298 269.84 418.218 272.164 416.222 273.132L410.719 275.65C410.719 275.65 407.058 289.206 404.907 294.261C402.756 299.315 395.219 310.16 397.893 314.227C399.692 316.714 402.363 318.431 405.374 319.034C408.384 319.637 411.511 319.082 414.129 317.481C421.046 313.608 420.853 301.058 423.352 296.178C425.425 292.111 424.456 283.474 424.456 281.615C424.622 277.665 424.296 273.71 423.488 269.84Z" fill="#31126F"/>
<path d="M366.68 245.089C364.491 245.089 361.41 247.413 359.414 248.381L353.912 251.073C353.912 251.073 351.974 265.907 348.099 269.683C344.224 273.459 329.596 281.438 332.212 285.504C333.88 288.04 336.462 289.836 339.422 290.518C342.381 291.2 345.489 290.715 348.099 289.164C355.016 285.291 359.531 277.545 364.471 275.609C368.714 273.924 366.913 262.924 367.087 259.226C367.595 254.517 367.458 249.761 366.68 245.089Z" fill="#31126F"/>
<path d="M356.799 106.287C356.799 106.287 347.383 156.447 348.235 183.947C349.088 211.448 349.572 245.127 351.665 260.039C351.665 260.039 369.896 262.576 376.096 257.115C376.096 257.115 377.937 160.707 378.034 161.25C380.824 173.935 393.921 238.91 395.316 243.151C396.711 247.392 403.435 281.652 403.435 281.652C407.826 282.747 412.397 282.924 416.86 282.175C421.324 281.425 425.585 279.764 429.378 277.295C429.378 277.295 427.111 227.968 422.887 214.101C418.663 200.235 403.938 113.085 396.77 106.268" fill="#441BB9"/>
<path opacity="0.67" d="M356.799 106.287C356.799 106.287 347.383 156.447 348.235 183.947C349.088 211.448 349.572 245.127 351.665 260.039C351.665 260.039 369.896 262.576 376.096 257.115C376.096 257.115 377.937 160.707 378.034 161.25C380.824 173.935 393.921 238.91 395.316 243.151C396.711 247.392 403.435 281.652 403.435 281.652C407.826 282.747 412.397 282.924 416.86 282.175C421.324 281.425 425.585 279.764 429.378 277.295C429.378 277.295 427.111 227.968 422.887 214.101C418.663 200.235 403.938 113.085 396.77 106.268" fill="#31126F"/>
<path d="M396.305 110.316C396.305 110.316 412.444 63.4291 405.992 52.7C399.54 41.9709 373.345 33.527 360.81 34.6115C348.274 35.6961 356.315 109.774 358.291 110.316C360.267 110.858 378.712 123.563 396.305 110.316Z" fill="#31126F"/>
<path d="M401.671 47.8783L382.103 39.7637C378.55 56.9613 374.869 74.1266 371.059 91.2596L398.397 96.0626C398.397 96.0626 414.672 87.1152 417.191 72.8226C419.709 58.53 402.369 48.5368 401.671 47.8783Z" fill="#31126F"/>
<path d="M362.166 62.8487C362.166 62.8487 359.55 37.227 359.55 34.9805C351.934 37.1584 344.814 40.7957 338.586 45.6901C335.402 48.1512 332.44 50.8858 329.732 53.8627C327.873 55.6108 326.333 57.6684 325.179 59.9437C324.376 62.6452 324.296 65.5099 324.946 68.2519C326.156 74.614 328.318 80.7575 331.36 86.4757C334.552 93.1521 338.498 99.4419 343.12 105.222C344.554 106.985 349.165 113.511 352.188 112.465C358.233 110.354 360.732 103.324 360.732 103.324C360.732 103.324 357.942 97.8437 354.92 91.0461C353.137 87.0373 345.116 77.9157 344.031 71.6798C344.824 70.6061 345.685 69.584 346.608 68.6199C350.599 64.7079 357.206 65.4244 362.166 62.8487Z" fill="#31126F"/>
<path d="M364.452 36.4133L368.327 56.5964L373.907 50.1076L378.131 58.2041L389.446 42.8634C389.446 42.8634 372.105 34.7669 364.452 36.4133Z" fill="#5C17DD"/>
<path d="M386.171 27.4076C383.246 30.6612 377.588 29.1894 373.868 28.3566C369.354 27.3302 364.181 24.5995 364.568 19.2155C364.568 18.4021 363.367 18.4021 363.309 19.2155C362.902 24.8125 367.978 28.1823 372.822 29.4024C377.123 30.4869 383.633 32.0943 387.063 28.2985C387.663 27.7562 386.772 26.8073 386.171 27.4076Z" fill="#009245"/>
<path d="M362.166 15.8458C362.166 15.8458 362.166 43.2302 372.221 45.012C383.265 46.9486 389.465 34.4378 389.465 34.4378C389.465 34.4378 390.88 10.2488 379.913 8.11847C368.947 5.98814 362.476 12.2629 362.166 15.8458Z" fill="#FBB5AD"/>
<path d="M381.676 31.6295C381.676 31.6295 384.331 21.1134 387.276 24.58C390.221 28.0466 382.509 35.5996 382.509 35.5996" fill="#FBB5AD"/>
<path d="M384.35 4.69043C384.35 4.69043 394.154 5.75559 397.021 13.5604C399.889 21.3651 392.546 36.8004 387.334 39.318L393.708 25.7614L393.398 16.4847L384.35 4.69043Z" fill="#5C2E2E"/>
<path d="M396.847 17.0462C396.053 11.5848 392.43 8.93152 387.683 6.12335L386.501 5.48425C387.411 4.74092 388.139 3.80052 388.632 2.73419C388.697 2.62508 388.732 2.50056 388.734 2.37342C388.735 2.24627 388.702 2.12108 388.639 2.01069C388.576 1.90029 388.485 1.80866 388.375 1.74521C388.264 1.68177 388.139 1.64879 388.012 1.64965C387.394 1.67443 386.787 1.82654 386.23 2.09647C385.674 2.3664 385.179 2.74834 384.776 3.21835C384.225 2.08869 383.477 1.06578 382.568 0.19715C382.477 0.112997 382.367 0.0529659 382.247 0.0225914C382.127 -0.00778302 382.002 -0.00752493 381.882 0.023345C381.762 0.0542149 381.653 0.114699 381.562 0.199226C381.472 0.283754 381.405 0.389606 381.366 0.507017C381.151 1.03482 381.055 1.60356 381.086 2.17266C381.116 2.74175 381.271 3.29719 381.541 3.79935C376.608 2.76211 371.466 3.54644 367.068 6.00715C365.459 6.97015 364.099 8.29676 363.096 9.88049C361.764 9.74578 360.422 9.98734 359.221 10.5777C357.925 11.18 356.863 12.1893 356.195 13.4515C355.526 14.7137 355.29 16.1597 355.52 17.5691C356.237 20.8614 359.725 21.9459 362.689 21.4424C364.214 21.161 365.641 20.4943 366.835 19.5057C365.944 20.997 365.498 22.9143 368.385 23.5727C373.403 24.7154 375.806 21.7329 376.135 24.2312C376.387 26.2647 379.216 27.4073 381.27 27.4461C381.425 27.7559 381.793 28.5887 382.238 29.7313C383.251 29.3985 384.334 29.3384 385.377 29.557C385.458 29.4669 385.559 29.397 385.671 29.3529C385.784 29.3088 385.906 29.2917 386.026 29.303C386.147 29.3143 386.263 29.3537 386.366 29.418C386.468 29.4822 386.554 29.5697 386.617 29.6732C388.361 32.6557 387.954 35.9093 387.276 39.3566C389.992 37.0273 392.229 34.1923 393.863 31.0095C396.215 26.7516 397.253 21.893 396.847 17.0462ZM382.587 2.36622L382.8 2.67608C382.787 2.75303 382.787 2.83153 382.8 2.90848C382.8 3.14088 382.975 3.37328 383.071 3.58632C382.812 3.23259 382.646 2.81988 382.587 2.38559V2.36622Z" fill="#5C2E2E"/>
<path d="M369.877 54.8697L372.841 60.6216L376.988 55.8574L373.984 50.1055L369.877 54.8697Z" fill="#FF7100"/>
<path d="M372.841 60.6797C372.841 60.6797 376.988 89.7297 380.591 108.69L375.321 118.78L368.404 110.2C368.404 110.2 365.576 90.3494 372.841 60.6797Z" fill="#FF7100"/>
<path d="M373.442 110.258L369.528 67.9033L340.369 68.5812L344.457 110.258H373.442Z" fill="#441BB9"/>
<path d="M383.362 93.603L370.671 84.1133V87.6768C370.671 87.6768 359.201 82.5446 358.639 84.7911C358.078 87.0376 360.131 94.4745 362.069 95.191C364.006 95.9076 372.105 98.464 372.105 98.464L378.499 100.401L383.362 93.603Z" fill="#FBB5AD"/>
<path d="M417.171 67.9033C417.171 67.9033 425.425 99.7421 419.748 106.269C414.071 112.795 377.259 105.726 376.91 102.395C376.561 99.0643 381.599 88.3933 381.599 88.3933L402.156 90.6398" fill="#31126F"/>
<path d="M354.474 110.258C354.474 110.258 362.224 108.961 363.716 113.221C364.549 115.468 358.601 113.221 358.601 113.221L354.396 125.713C353.15 124.127 352.468 122.171 352.459 120.155C352.431 117.295 352.691 114.441 353.234 111.633L354.474 110.258Z" fill="#FBB5AD"/>
<path d="M126.333 317.984C130.577 320.793 133.754 322.439 133.754 322.439C137.125 322.439 143.442 323.175 141.504 318.759C143.743 322.441 146.548 325.748 149.816 328.559C153.478 331.716 174.035 334.66 166.982 346.88C163.34 353.175 127.67 335.124 126.779 330.844C126.235 326.58 126.086 322.276 126.333 317.984Z" fill="#5C17DD"/>
<path d="M141.736 297.205C140.755 303.314 140.579 309.526 141.213 315.681C141.407 317.017 141.581 318.45 141.852 319.883L126.217 317.25V297.205H141.736Z" fill="#31126F"/>
<path d="M126.333 313.666C130.576 316.474 133.754 318.12 133.754 318.12C137.125 318.12 143.441 318.856 141.504 314.441C143.743 318.123 146.548 321.43 149.816 324.24C153.478 327.397 174.131 337.545 165.509 342.91C159.096 346.899 127.67 330.806 126.759 326.525C126.222 322.261 126.08 317.956 126.333 313.666Z" fill="#31126F"/>
<path d="M132.959 318.394C132.804 317.251 130.518 311.556 132.378 310.239C134.238 308.921 142.066 306.965 142.899 309.193C143.732 311.42 142.899 319.188 142.899 319.188" fill="#31126F"/>
<path d="M156.209 306.326C160.453 309.134 163.63 310.781 163.63 310.781C167.001 310.781 173.318 311.516 171.38 307.101C173.619 310.783 176.424 314.09 179.692 316.9C183.354 320.057 203.911 323.001 196.858 335.221C193.216 341.515 157.546 323.466 156.655 319.186C156.111 314.922 155.962 310.617 156.209 306.326Z" fill="#5C17DD"/>
<path d="M171.613 285.546C170.632 291.655 170.456 297.867 171.09 304.022C171.283 305.358 171.458 306.791 171.729 308.224L156.093 305.59V285.546H171.613Z" fill="#31126F"/>
<path d="M156.209 302.008C160.453 304.816 163.63 306.462 163.63 306.462C167.001 306.462 173.318 307.198 171.38 302.782C173.619 306.465 176.424 309.772 179.692 312.582C183.354 315.739 204.008 325.887 195.386 331.252C188.973 335.241 157.546 319.147 156.636 314.867C156.099 310.603 155.956 306.298 156.209 302.008Z" fill="#31126F"/>
<path d="M162.836 306.637C162.681 305.494 160.395 299.8 162.255 298.483C164.115 297.166 171.942 295.21 172.775 297.437C173.608 299.665 172.775 307.431 172.775 307.431" fill="#31126F"/>
<path d="M182.075 124.725C182.075 124.725 186.977 242.997 177.29 292.712C177.29 292.712 175.352 298.25 152.238 295.036L150.688 305.377C150.688 305.377 134.451 309.793 119.087 303.441C119.087 303.441 112.674 188.558 131.933 121.801" fill="#5515D6"/>
<path d="M180.37 84.1525C184.381 82.8743 176.495 61.7259 175.798 59.0726C175.432 57.4269 174.776 55.8595 173.86 54.444C171.109 50.6869 165.703 52.5073 161.848 52.5073C156.743 52.5575 151.651 53.0108 146.619 53.863C143.786 54.3839 141.061 55.3791 138.559 56.8067C130.654 67.8845 127.903 81.6929 127.069 95.1334C126.604 102.531 126.643 109.988 126.682 117.405C126.644 122.123 126.909 126.839 127.476 131.523C127.549 132.075 127.748 132.603 128.057 133.067C128.366 133.53 128.777 133.916 129.259 134.196C132.059 135.875 135.222 136.858 138.481 137.062C152.412 137.624 169.288 137.062 180.176 127.999C180.875 127.053 181.521 126.07 182.114 125.055L180.331 84.1525H180.37Z" fill="#441BB9"/>
<path d="M167.118 102.938V87.2312L198.912 73.8291L207.921 77.3733V121.627L173.55 137.489L166.265 132.88" fill="#31126F"/>
<path d="M126.701 117.443C118.506 110.606 113.604 104.699 121.044 78.4188C127.38 55.9922 146.619 53.9199 146.619 53.9199" fill="#441BB9"/>
<path d="M169.888 30.9902C169.888 30.9902 176.011 53.3587 165.897 58.2584C155.783 63.1582 148.673 55.857 145.611 49.1755C142.55 42.494 143.674 26.8457 156.791 25.2576C168.164 23.8826 169.888 30.9902 169.888 30.9902Z" fill="#FBB5AD"/>
<path d="M171.865 26.7492C172.93 24.0185 173.376 19.1381 170.179 17.6275C168.974 17.1571 167.661 17.0312 166.388 17.2638C165.115 17.4964 163.932 18.0783 162.971 18.9444C161.829 18.057 160.507 17.4292 159.096 17.1046C156.562 16.3547 153.88 16.2543 151.296 16.8128C148.713 17.3712 146.311 18.5705 144.313 20.3001C144.138 20.4744 143.935 20.6184 143.713 20.7262C143.406 20.8233 143.084 20.8627 142.763 20.8424C134.82 20.9779 133.076 29.9834 134.471 36.1033C135.867 42.4806 139.26 48.247 144.158 52.565C146.271 54.286 148.729 55.5342 151.366 56.2253C151.458 56.2501 151.555 56.2526 151.648 56.2325C151.742 56.2124 151.829 56.1703 151.903 56.1097C151.977 56.0491 152.035 55.9717 152.073 55.884C152.111 55.7964 152.128 55.7009 152.121 55.6055C152.208 55.5542 152.283 55.4858 152.341 55.4045C152.4 55.3232 152.442 55.2308 152.464 55.1328C152.485 55.0349 152.487 54.9335 152.468 54.8349C152.449 54.7364 152.41 54.6427 152.354 54.5597C151.679 53.2202 151.442 51.7029 151.676 50.2216C151.693 50.1163 151.684 50.0084 151.651 49.9072C151.617 49.806 151.559 49.7145 151.482 49.6406C151.58 49.5349 151.643 49.4021 151.665 49.2597C151.686 49.1173 151.664 48.9718 151.601 48.8422C151.538 48.7126 151.438 48.6049 151.313 48.5332C151.188 48.4614 151.044 48.4289 150.901 48.4399C150.05 48.5441 149.186 48.4516 148.377 48.1696C147.567 47.8875 146.833 47.4234 146.231 46.8131C145.495 46.0384 144.875 44.5278 146.328 44.1598C146.605 44.0963 146.893 44.102 147.166 44.1763C147.44 44.2506 147.691 44.3913 147.898 44.5859C148.111 44.9547 148.365 45.2989 148.653 45.6123C148.762 45.726 148.905 45.8009 149.06 45.8254C149.603 45.9997 150.3 45.5542 149.951 44.9539C149.712 44.5248 149.419 44.1279 149.08 43.7725C148.595 42.9608 148.406 42.007 148.544 41.072C148.681 40.1371 149.138 39.2782 149.835 38.6403C151.773 36.9942 153.42 37.885 155.648 37.9819C156.294 38.0685 156.951 37.9208 157.498 37.5655C158.045 37.2103 158.447 36.671 158.631 36.0452C158.639 35.1502 158.528 34.2581 158.302 33.392C158.263 32.7308 158.428 32.0735 158.774 31.5089C159.121 30.9444 159.632 30.4998 160.24 30.2352C162.506 29.3637 163.979 31.2616 165.645 32.4236C166.335 32.9397 167.131 33.296 167.975 33.4668C168.82 33.6376 169.692 33.6187 170.528 33.4113C171.177 33.2452 171.775 32.9197 172.267 32.4643C172.759 32.0089 173.129 31.4381 173.345 30.8034C173.56 30.1688 173.614 29.4905 173.501 28.8299C173.388 28.1693 173.112 27.5473 172.698 27.0203C172.611 26.8868 172.481 26.787 172.329 26.7377C172.177 26.6883 172.014 26.6924 171.865 26.7492ZM158.108 29.9253C158.356 29.5273 158.722 29.216 159.155 29.0345C159.3 28.9677 159.437 28.8831 159.561 28.7827H159.697L159.91 28.8795C159.24 29.0829 158.625 29.4337 158.108 29.906V29.9253ZM170.915 25.1999H170.818C170.924 24.9603 171.014 24.7145 171.09 24.4639C171.109 24.6576 170.973 24.9287 170.915 25.1805V25.1999Z" fill="#FF7100"/>
<path d="M154.563 295.016C156.991 263.074 158.864 231.099 160.181 199.093C160.646 187.473 161.04 175.891 161.363 164.349C161.363 164.143 161.282 163.946 161.136 163.801C160.991 163.656 160.794 163.574 160.588 163.574C160.383 163.574 160.185 163.656 160.04 163.801C159.895 163.946 159.813 164.143 159.813 164.349C158.664 205.587 156.578 246.78 153.555 287.928C153.381 290.252 153.168 292.595 152.993 294.919L154.563 295.016Z" fill="white"/>
<path d="M183.896 110.742C183.896 110.742 185.369 107.198 182.928 105.842C180.486 104.487 169.113 105.842 169.113 105.842L171.303 101.969C171.574 101.213 171.186 100.826 170.237 100.671C167.621 100.206 165.529 103.363 164.425 105.3C163.984 106.012 163.682 106.8 163.533 107.624C163.533 108.244 163.533 109.212 162.933 109.561C162.306 109.57 161.685 109.445 161.111 109.193C160.259 113.357 159.271 117.482 158.438 121.627L163.301 122.944C163.301 122.944 179.053 127.96 180.641 126.508C181.663 125.441 182.339 124.091 182.579 122.634L184.516 120.891C186.454 119.148 183.645 116.572 183.645 116.572C184.406 116.515 185.131 116.226 185.723 115.745C186.316 115.264 186.746 114.613 186.958 113.88C187.868 111.246 183.896 110.742 183.896 110.742Z" fill="#FBB5AD"/>
<path d="M170.566 109.096C175.051 109.814 179.587 110.171 184.129 110.162C184.594 110.162 184.516 110.879 184.129 110.898C179.587 110.907 175.051 110.551 170.566 109.832C170.043 109.793 170.101 109.096 170.566 109.096Z" fill="#42210B"/>
<path d="M169.462 113.899C174.251 115.453 179.206 116.441 184.226 116.842C184.323 116.842 184.417 116.881 184.486 116.95C184.555 117.019 184.594 117.113 184.594 117.21C184.594 117.308 184.555 117.402 184.486 117.471C184.417 117.54 184.323 117.578 184.226 117.578C179.107 117.173 174.054 116.166 169.171 114.577C168.765 114.441 169.016 113.763 169.462 113.899Z" fill="#42210B"/>
<path d="M169.695 119.031C173.916 120.568 178.267 121.722 182.695 122.478C182.793 122.478 182.886 122.517 182.955 122.586C183.025 122.655 183.063 122.749 183.063 122.846C183.063 122.944 183.025 123.037 182.955 123.106C182.886 123.175 182.793 123.214 182.695 123.214C178.201 122.452 173.785 121.286 169.501 119.728C168.997 119.593 169.171 118.915 169.695 119.031Z" fill="#42210B"/>
<path d="M162.739 102.821C155.906 101.603 149.291 99.3774 143.112 96.2166C143.277 96.1386 143.415 96.015 143.511 95.8605C143.608 95.706 143.657 95.5271 143.655 95.3451C143.703 91.7871 144.118 88.2436 144.895 84.7709C145.185 83.4733 143.19 82.8342 142.957 84.2286C142.137 87.8791 141.696 91.6042 141.64 95.3451L140.535 94.7447C140.303 94.6537 140.046 94.6484 139.811 94.7298C139.575 94.8113 139.377 94.974 139.251 95.1888C139.124 95.4036 139.079 95.6564 139.123 95.9016C139.166 96.1468 139.296 96.3684 139.489 96.5265C146.287 100.378 153.669 103.093 161.344 104.564C160.375 111.019 159.284 117.404 158.07 123.717C158.037 123.86 158.036 124.009 158.066 124.153C158.096 124.296 158.157 124.432 158.244 124.55C154.369 124.298 139.179 122.981 126.76 117.365L127.554 131.483C127.554 131.483 146.096 133.071 158.69 124.899C158.817 124.981 158.963 125.031 159.114 125.043C159.265 125.054 159.417 125.028 159.555 124.967C159.694 124.905 159.815 124.81 159.907 124.69C160 124.57 160.061 124.429 160.085 124.279C161.376 117.552 162.526 110.8 163.533 104.021C163.58 103.758 163.523 103.486 163.376 103.263C163.228 103.039 163 102.881 162.739 102.821Z" fill="#31126F"/>
<path d="M363.793 150.772C363.781 150.286 363.615 149.816 363.319 149.43C363.023 149.044 362.613 148.761 362.146 148.623C361.434 148.412 360.699 148.289 359.957 148.255C361.1 147.48 361.488 146.628 360.693 145.718C356.566 140.896 333.084 151.392 330.74 147.112C330.468 146.609 330.158 146.105 329.848 145.602C329.538 145.098 329.403 144.537 329.131 144.033C328.532 142.237 327.362 140.687 325.799 139.618C325.414 139.407 324.976 139.312 324.538 139.345C324.1 139.379 323.681 139.538 323.332 139.805C322.983 140.071 322.719 140.434 322.572 140.847C322.426 141.261 322.402 141.709 322.505 142.135C323.347 145.691 324.602 149.135 326.245 152.399C325.626 157.525 324.53 162.581 322.97 167.503C322.098 170.253 326.419 171.376 327.291 168.684C327.563 168.952 327.895 169.151 328.26 169.265C328.578 169.589 328.986 169.811 329.43 169.904C329.875 169.997 330.337 169.957 330.759 169.788C330.776 170.315 330.977 170.82 331.329 171.213C331.68 171.607 332.159 171.864 332.681 171.94C333.203 172.016 333.735 171.907 334.184 171.63C334.633 171.353 334.971 170.928 335.138 170.427C336.61 165.838 338.567 160.745 342.888 158.402H344.941C349.553 158.402 354.164 158.247 358.775 157.956C359.185 157.919 359.578 157.776 359.915 157.541C360.253 157.306 360.523 156.986 360.699 156.615C360.875 156.243 360.951 155.832 360.92 155.422C360.888 155.012 360.75 154.617 360.519 154.277C362.301 153.87 363.813 152.98 363.793 150.772Z" fill="#FBB5AD"/>
<path d="M266.666 412.126C266.492 405.599 259.129 405.251 257.134 400.777C256.54 399.014 256.374 397.136 256.649 395.296C256.26 395.295 255.875 395.213 255.519 395.057C255.162 394.901 254.842 394.673 254.577 394.388C254.311 394.103 254.108 393.767 253.978 393.4C253.848 393.034 253.794 392.644 253.821 392.256C254.012 388.954 254.664 385.694 255.758 382.573L245.586 373.18C245.586 373.18 237.429 386.194 236.674 389.022C235.918 391.849 235.337 413.54 235.996 415.631C236.654 417.723 240.316 417.219 242.157 416.755C243.998 416.29 242.157 399.712 243.92 400.584C245.683 401.455 246.749 415.69 249.093 418.866C251.438 422.042 265.717 420.686 265.717 420.686C265.717 420.686 266.841 418.653 266.666 412.126Z" fill="#31126F"/>
<path d="M256.359 392.817C254.576 380.519 258.781 358.558 258.781 358.558L241.944 359.836L239.251 384.451C239.571 384.858 239.766 385.349 239.813 385.865C239.801 385.974 239.801 386.084 239.813 386.194L240.123 386.717C241.208 387.956 244.172 388.111 245.509 388.828C248.454 390.435 249.093 393.108 249.384 396.11C250.081 401.552 250.081 409.86 264.884 407.613C264.864 407.613 258.064 405.096 256.359 392.817Z" fill="#FBB5AD"/>
<path d="M290.885 422.177C290.381 415.67 283.019 415.67 280.83 411.293C280.15 409.564 279.891 407.699 280.074 405.851C279.684 405.87 279.294 405.808 278.928 405.669C278.563 405.531 278.23 405.319 277.95 405.047C277.67 404.774 277.45 404.447 277.302 404.086C277.154 403.724 277.082 403.336 277.09 402.946C277.131 399.666 277.627 396.407 278.563 393.263L267.984 384.393C267.984 384.393 260.466 397.775 259.846 400.641C259.226 403.507 259.691 425.198 260.466 427.251C261.241 429.304 264.845 428.626 266.666 428.084C268.488 427.542 265.911 411.061 267.655 411.835C269.398 412.61 271.22 426.786 273.719 429.846C276.218 432.906 290.42 430.853 290.42 430.853C290.42 430.853 291.389 428.645 290.885 422.177Z" fill="#31126F"/>
<path d="M279.609 403.466C277.245 391.286 280.365 369.132 280.365 369.132L263.605 371.223L262.171 395.875C262.513 396.262 262.735 396.74 262.811 397.25C262.8 397.353 262.8 397.457 262.811 397.56L263.16 398.063C264.303 399.245 267.267 399.264 268.643 400C271.665 401.452 272.518 404.105 272.828 407.088C273.796 412.49 274.184 420.798 288.87 417.816C288.87 417.758 281.953 415.57 279.609 403.466Z" fill="#FBB5AD"/>
<path d="M242.254 145.37C242.254 145.37 232.566 148.217 228.052 171.998C223.538 195.779 220.961 209.142 225.96 216.23C230.958 223.318 248.357 235.015 248.357 235.015L268.856 207.515" fill="#5C17DD"/>
<path d="M246.826 202.269C246.826 202.269 223.576 153.678 242.254 145.37C260.931 137.061 284.065 149.243 287.921 161.522C291.776 173.8 286.158 210.694 286.158 210.694C286.158 210.694 261.571 211.391 246.826 202.269Z" fill="#5C17DD"/>
<path d="M284.763 155.828C284.763 155.828 300.902 182.941 313.321 179.203L323.881 155.228C323.881 155.228 345.193 161.832 343.256 174.865C343.256 174.865 324.21 207.479 310.551 209.338C296.891 211.197 280.016 193.845 280.016 193.845" fill="#5C17DD"/>
<path d="M240.53 374.749C258.742 384.103 269.166 393.205 289.277 388.557C294.973 387.182 300.069 305.784 300.088 301.62C300.224 274.836 303.828 257.755 297.046 231.784C296.097 228.163 290.711 208.041 286.623 207.518L246.826 202.25C246.826 202.25 239.076 215.807 238.689 245.05C238.456 264.553 241.188 283.919 241.615 303.383C241.615 314.69 240.466 325.967 238.185 337.042C237.139 342.716 235.221 349.03 233.865 355.247C233.05 360.017 232.564 364.838 232.411 369.675C234.976 371.582 237.691 373.279 240.53 374.749Z" fill="#441BB9"/>
<path d="M248.26 149.05C247.466 148.624 243.571 141.303 248.803 139.366C254.034 137.43 271.258 139.366 271.142 142.504C271.026 145.641 271.142 150.425 271.142 150.425C267.432 151.748 263.493 152.309 259.561 152.072C255.629 151.836 251.785 150.808 248.26 149.05Z" fill="#31126F"/>
<path d="M247.35 200.333C242.072 187.991 239.073 174.796 238.495 161.385C238.495 159.952 236.19 159.952 236.267 161.385C236.868 175.212 239.973 188.815 245.431 201.534C245.993 202.773 247.911 201.631 247.35 200.333Z" fill="#31126F"/>
<path d="M228.343 129.005C223.693 137.062 234.64 153.272 223.732 157.804C221.237 158.648 218.615 159.054 215.982 159.004C213.235 158.975 210.515 159.53 207.999 160.632C205.484 161.734 203.232 163.357 201.392 165.395C195.58 172.309 195.987 183.697 201.218 190.882C207.185 199.074 217.338 200.139 226.076 196.246C246.73 187.067 233.535 147.83 249.093 137.314L249.849 119.651C249.849 119.651 234.272 118.78 228.343 129.005Z" fill="#FF7100"/>
<path d="M276.761 115.08C276.761 115.08 276.354 140.489 271.375 143.685C266.395 146.88 252.639 142.135 252 135.086C251.36 128.036 276.761 115.08 276.761 115.08Z" fill="#FBB5AD"/>
<path d="M262.733 102.899C262.733 102.899 253.956 99.4516 241.188 106.772C228.42 114.093 232.605 137.759 247.504 142.6C262.404 147.442 266.201 132.917 269.011 127.107C271.82 121.297 276.761 119.186 276.664 116.475C276.567 113.764 276.373 102.492 262.733 102.899Z" fill="#FF7100"/>
<path d="M519.125 128.63C532.248 127.17 541.042 109.415 538.766 88.9737C536.49 68.532 524.007 53.1441 510.883 54.6039C497.76 56.0637 488.966 73.8184 491.242 94.2601C493.518 114.702 506.001 130.09 519.125 128.63Z" fill="#986DE8"/>
<path d="M507.595 86.2623L512.651 91.317V69.4133C512.651 68.6583 512.951 67.9341 513.486 67.4002C514.02 66.8663 514.744 66.5664 515.5 66.5664C516.255 66.5664 516.979 66.8663 517.513 67.4002C518.048 67.9341 518.348 68.6583 518.348 69.4133V98.3277C518.302 98.8581 518.111 99.3656 517.796 99.7942C517.48 100.223 517.052 100.556 516.558 100.756C516.065 100.957 515.526 101.017 515 100.93C514.475 100.843 513.984 100.613 513.581 100.264L503.661 90.3487C503.196 89.8118 502.948 89.1203 502.966 88.4101C502.985 87.6998 503.268 87.0221 503.761 86.5101C504.254 85.9981 504.92 85.6888 505.63 85.6429C506.339 85.5971 507.04 85.818 507.595 86.2623Z" fill="#FF7100"/>
<path d="M476.459 254.346V327.765C476.459 327.765 547.042 331.638 547.042 327.765V254.346" fill="#441BB9"/>
<path d="M511.76 343.257C531.256 343.257 547.061 336.043 547.061 327.144C547.061 318.245 531.256 311.031 511.76 311.031C492.264 311.031 476.459 318.245 476.459 327.144C476.459 336.043 492.264 343.257 511.76 343.257Z" fill="#441BB9"/>
<path d="M511.76 270.478C531.256 270.478 547.061 263.264 547.061 254.365C547.061 245.466 531.256 238.252 511.76 238.252C492.264 238.252 476.459 245.466 476.459 254.365C476.459 263.264 492.264 270.478 511.76 270.478Z" fill="#5515D6"/>
<path d="M489.75 266.896L490.002 267.031C491.358 267.496 492.734 267.922 494.129 268.29L484.441 187.899C483.616 187.586 482.721 187.506 481.853 187.666C480.986 187.827 480.179 188.222 479.52 188.809L489.363 266.76L489.75 266.896Z" fill="#F78B72"/>
<path d="M500.716 269.394L503.7 193.864C502.936 193.425 502.066 193.203 501.184 193.224C500.303 193.244 499.444 193.506 498.701 193.98L496.26 268.677C497.731 269.001 499.218 269.24 500.716 269.394Z" fill="#F78B72"/>
<path d="M511.76 270.479L521.447 191.811L541.171 202.191L533.227 268.271C526.264 270.297 518.99 271.045 511.76 270.479Z" fill="#FF7100"/>
<path style="mix-blend-mode:multiply" d="M424.534 291.938C412.211 285.217 382.432 280.492 357.69 268.271C329.151 284.907 308.749 296.082 264.845 321.142C298.073 341.323 323.823 359.876 327.562 362.084L414.188 317.54C414.11 313.163 424.456 296.353 424.534 291.938Z" fill="url(#paint3_linear_69_47)"/>
<defs>
<linearGradient id="paint0_linear_69_47" x1="520.537" y1="318.372" x2="456.943" y2="354.185" gradientUnits="userSpaceOnUse">
<stop stop-color="#441BB9"/>
<stop offset="1" stop-color="white"/>
</linearGradient>
<linearGradient id="paint1_linear_69_47" x1="13259.8" y1="13537.9" x2="11173" y2="15689.6" gradientUnits="userSpaceOnUse">
<stop stop-color="#441BB9"/>
<stop offset="1" stop-color="white"/>
</linearGradient>
<linearGradient id="paint2_linear_69_47" x1="14337" y1="12283.8" x2="13955.1" y2="13028.2" gradientUnits="userSpaceOnUse">
<stop stop-color="#441BB9"/>
<stop offset="1" stop-color="white" stop-opacity="0"/>
</linearGradient>
<linearGradient id="paint3_linear_69_47" x1="38641.2" y1="16988.4" x2="36192.9" y2="20844.3" gradientUnits="userSpaceOnUse">
<stop stop-color="#8D0000"/>
<stop offset="1" stop-color="white"/>
</linearGradient>
</defs>
</svg>
