<svg width="74" height="74" viewBox="0 0 74 74" fill="none" xmlns="http://www.w3.org/2000/svg">
<path d="M44.9908 35.7003H64.7312C66.8071 33.8213 68.3737 31.4475 69.2849 28.7999C69.3856 28.565 70.2328 26.4714 68.971 25.4237C68.1002 24.698 66.3622 24.3678 60.7109 27.9935C60.1224 26.9766 59.2647 26.1418 58.2322 25.581C57.1998 25.0202 56.0326 24.7552 54.8592 24.815C53.6862 24.7548 52.5192 25.0193 51.4868 25.5795C50.4544 26.1396 49.5965 26.9737 49.0075 27.9899C43.3553 24.3615 41.6182 24.6944 40.7474 25.4201C39.4856 26.4678 40.3328 28.5614 40.4063 28.7265C41.3228 31.4 42.8998 33.7988 44.9908 35.7003Z" fill="#C4A2FC"/>
<path fill-rule="evenodd" clip-rule="evenodd" d="M45.2366 37.5156H64.4799C71.0047 43.4544 74.6023 48.4916 72.3046 59.3423C71.6511 62.3942 69.975 65.1314 67.5537 67.1007C65.1324 69.07 62.1111 70.1533 58.9901 70.1713H50.7264C47.6054 70.1533 44.5842 69.07 42.1629 67.1007C39.7416 65.1314 38.0655 62.3942 37.412 59.3423C35.1143 48.4916 38.7118 43.4544 45.2366 37.5156ZM52.1937 48.895C52.1937 47.6883 52.5301 47.1536 53.9065 47.1536H56.1393C58.6321 47.1536 60.1308 48.6048 60.1308 50.8504C60.1308 53.1265 58.7392 54.5318 56.3381 54.5318H54.6712V55.601H56.6158C57.2733 55.601 57.8064 56.134 57.8064 56.7916C57.8064 57.4491 57.2733 57.9821 56.6158 57.9821H54.6712V58.4365C54.6712 59.6127 54.2735 60.1932 53.4324 60.1932C52.5913 60.1932 52.1937 59.6127 52.1937 58.4365V57.9821H51.1732C50.5156 57.9821 49.9826 57.4491 49.9826 56.7916C49.9826 56.134 50.5156 55.601 51.1732 55.601H52.1937V48.895ZM54.6712 49.4297H55.7417C56.8887 49.4297 57.4392 49.8727 57.4392 50.8504C57.4392 51.7975 56.8734 52.2863 55.7417 52.2863H54.6712V49.4297Z" fill="#C4A2FC"/>
<path fill-rule="evenodd" clip-rule="evenodd" d="M46.3546 3.33008C38.5639 3.33008 32.2483 9.64568 32.2483 17.4364C32.2483 19.196 32.5705 20.8803 33.159 22.4335L25.3148 26.9624C22.7277 23.9484 18.8901 22.0391 14.6065 22.0391C6.81585 22.0391 0.500244 28.3547 0.500244 36.1454C0.500244 41.4454 3.42339 46.062 7.74303 48.4721C8.12435 48.6849 8.5166 48.8805 8.91871 49.0579C10.6592 49.8256 12.5838 50.2517 14.6065 50.2517C16.8599 50.2517 18.9912 49.7229 20.8819 48.7823C21.2851 48.5817 21.6774 48.3624 22.0575 48.1255C22.8503 47.6314 23.5905 47.0608 24.2678 46.4239L33.5986 51.8111C33.4563 52.6149 33.3821 53.4423 33.3821 54.287C33.3821 59.587 36.3052 64.2036 40.6249 66.6137C41.0062 66.8265 41.3984 67.0221 41.8005 67.1995C43.541 67.9672 45.4656 68.3933 47.4884 68.3933C49.7418 68.3933 51.8731 67.8645 53.7637 66.9239C54.167 66.7233 54.5592 66.504 54.9393 66.2671C58.9343 63.7774 61.5947 59.343 61.5947 54.287C61.5947 46.7113 55.6229 40.5304 48.13 40.195V31.432C49.7282 31.2312 51.2438 30.763 52.6299 30.0733C53.0332 29.8727 53.4254 29.6534 53.8055 29.4165C57.8005 26.9268 60.4609 22.4925 60.4609 17.4364C60.4609 9.64568 54.1453 3.33008 46.3546 3.33008ZM45.9962 31.5382C44.1045 31.491 42.3041 31.0711 40.6668 30.3489C40.2646 30.1715 39.8724 29.9759 39.4911 29.7632C37.2264 28.4996 35.3455 26.6295 34.0685 24.3724L26.5856 28.6926C27.9339 30.8552 28.7128 33.4093 28.7128 36.1454C28.7128 39.4118 27.6025 42.4187 25.7393 44.8095L34.1555 49.6686C35.912 44.5969 40.4806 40.8385 45.9962 40.2587V31.5382ZM58.327 17.4364C58.327 21.1226 56.6611 24.4197 54.0411 26.6159V12.334C54.0411 10.8054 52.8019 9.5663 51.2734 9.5663H42.0024C40.4738 9.5663 39.2347 10.8054 39.2347 12.334V27.0626C36.2906 24.8815 34.3821 21.3818 34.3821 17.4364C34.3821 10.8242 39.7424 5.46394 46.3546 5.46394C52.9668 5.46394 58.327 10.8242 58.327 17.4364ZM42.0024 21.7048C41.7843 21.7048 41.5721 21.6796 41.3686 21.6319V22.9787C41.5721 22.931 41.7843 22.9057 42.0024 22.9057H43.2697C44.7982 22.9057 46.0374 24.1449 46.0374 25.6735V27.6077C46.0374 28.278 45.7991 28.8926 45.4026 29.3715C45.7167 29.3962 46.0342 29.4088 46.3546 29.4088C46.8542 29.4088 47.3467 29.3782 47.8303 29.3188C47.4594 28.8479 47.2381 28.2536 47.2381 27.6077V25.6735C47.2381 24.1449 48.4773 22.9057 50.0059 22.9057H51.2731C51.4913 22.9057 51.7036 22.931 51.9072 22.9787V21.6318C51.7036 21.6796 51.4913 21.7048 51.2731 21.7048H50.0059C48.4773 21.7048 47.2381 20.4657 47.2381 18.9371V17.0029C47.2381 15.4743 48.4773 14.2352 50.0059 14.2352H51.2731C51.4913 14.2352 51.7036 14.2604 51.9072 14.3081V12.334C51.9072 11.9839 51.6234 11.7002 51.2734 11.7002H42.0024C41.6523 11.7002 41.3686 11.9839 41.3686 12.334V14.3081C41.5721 14.2604 41.7843 14.2352 42.0024 14.2352H43.2697C44.7982 14.2352 46.0374 15.4743 46.0374 17.0029V18.9371C46.0374 20.4657 44.7982 21.7048 43.2697 21.7048H42.0024ZM41.3686 27.6077V25.6735C41.3686 25.3234 41.6523 25.0396 42.0024 25.0396H43.2697C43.6197 25.0396 43.9035 25.3234 43.9035 25.6735V27.6077C43.9035 27.9578 43.6197 28.2415 43.2697 28.2415H42.0024C41.6523 28.2415 41.3686 27.9578 41.3686 27.6077ZM42.0024 19.571C41.6523 19.571 41.3686 19.2872 41.3686 18.9371V17.0029C41.3686 16.6528 41.6523 16.369 42.0024 16.369H43.2697C43.6197 16.369 43.9035 16.6528 43.9035 17.0029V18.9371C43.9035 19.2872 43.6197 19.571 43.2697 19.571H42.0024ZM49.372 17.0029C49.372 16.6528 49.6558 16.369 50.0059 16.369H51.2731C51.6232 16.369 51.907 16.6528 51.907 17.0029V18.9371C51.907 19.2872 51.6232 19.571 51.2731 19.571H50.0059C49.6558 19.571 49.372 19.2872 49.372 18.9371V17.0029ZM49.372 25.6735C49.372 25.3234 49.6558 25.0396 50.0059 25.0396H51.2731C51.6232 25.0396 51.907 25.3234 51.907 25.6735V27.6077C51.907 27.9578 51.6232 28.2415 51.2731 28.2415H50.0059C49.6558 28.2415 49.372 27.9578 49.372 27.6077V25.6735ZM26.579 36.1454C26.579 39.8316 24.9131 43.1287 22.293 45.3249V31.043C22.293 29.5144 21.0539 28.2753 19.5253 28.2753H10.2544C8.7258 28.2753 7.48665 29.5144 7.48665 31.043V45.7716C4.54254 43.5905 2.6341 40.0908 2.6341 36.1454C2.6341 29.5332 7.99435 24.1729 14.6065 24.1729C21.2187 24.1729 26.579 29.5332 26.579 36.1454ZM10.2544 40.4138C10.0363 40.4138 9.82406 40.3886 9.62051 40.3409V41.6876C9.82406 41.64 10.0363 41.6147 10.2544 41.6147H11.5216C13.0502 41.6147 14.2893 42.8539 14.2893 44.3824V46.3167C14.2893 46.987 14.0511 47.6016 13.6546 48.0805C13.9687 48.1052 14.2861 48.1178 14.6065 48.1178C15.1062 48.1178 15.5987 48.0872 16.0822 48.0278C15.7114 47.5569 15.4901 46.9626 15.4901 46.3167V44.3824C15.4901 42.8539 16.7292 41.6147 18.2578 41.6147H19.5251C19.7433 41.6147 19.9556 41.64 20.1592 41.6877V40.3408C19.9556 40.3886 19.7433 40.4138 19.5251 40.4138H18.2578C16.7292 40.4138 15.4901 39.1747 15.4901 37.6461V35.7119C15.4901 34.1833 16.7292 32.9441 18.2578 32.9441H19.5251C19.7433 32.9441 19.9556 32.9694 20.1592 33.0171V31.043C20.1592 30.6929 19.8754 30.4091 19.5253 30.4091H10.2544C9.9043 30.4091 9.62051 30.6929 9.62051 31.043V33.0171C9.82406 32.9694 10.0363 32.9441 10.2544 32.9441H11.5216C13.0502 32.9441 14.2893 34.1833 14.2893 35.7119V37.6461C14.2893 39.1747 13.0502 40.4138 11.5216 40.4138H10.2544ZM9.62051 46.3167V44.3824C9.62051 44.0324 9.9043 43.7486 10.2544 43.7486H11.5216C11.8717 43.7486 12.1555 44.0324 12.1555 44.3824V46.3167C12.1555 46.6667 11.8717 46.9505 11.5216 46.9505H10.2544C9.9043 46.9505 9.62051 46.6667 9.62051 46.3167ZM10.2544 38.2799C9.9043 38.2799 9.62051 37.9962 9.62051 37.6461V35.7119C9.62051 35.3618 9.9043 35.078 10.2544 35.078H11.5216C11.8717 35.078 12.1555 35.3618 12.1555 35.7119V37.6461C12.1555 37.9962 11.8717 38.2799 11.5216 38.2799H10.2544ZM17.624 35.7119C17.624 35.3618 17.9077 35.078 18.2578 35.078H19.5251C19.8751 35.078 20.1589 35.3618 20.1589 35.7119V37.6461C20.1589 37.9962 19.8751 38.2799 19.5251 38.2799H18.2578C17.9077 38.2799 17.624 37.9962 17.624 37.6461V35.7119ZM17.624 44.3824C17.624 44.0324 17.9077 43.7486 18.2578 43.7486H19.5251C19.8751 43.7486 20.1589 44.0324 20.1589 44.3824V46.3167C20.1589 46.6667 19.8751 46.9505 19.5251 46.9505H18.2578C17.9077 46.9505 17.624 46.6667 17.624 46.3167V44.3824ZM59.4608 54.287C59.4608 57.9732 57.7949 61.2703 55.1749 63.4665V49.1846C55.1749 47.656 53.9357 46.4169 52.4072 46.4169H43.1362C41.6076 46.4169 40.3685 47.656 40.3685 49.1846V63.9132C37.4244 61.7321 35.5159 58.2324 35.5159 54.287C35.5159 47.6748 40.8762 42.3145 47.4884 42.3145C54.1006 42.3145 59.4608 47.6748 59.4608 54.287ZM43.1362 58.5554C42.9181 58.5554 42.7059 58.5302 42.5023 58.4825V59.8292C42.7059 59.7816 42.9181 59.7563 43.1362 59.7563H44.4035C45.932 59.7563 47.1712 60.9955 47.1712 62.524V64.4583C47.1712 65.1286 46.9329 65.7432 46.5364 66.2221C46.8505 66.2468 47.168 66.2594 47.4884 66.2594C47.988 66.2594 48.4805 66.2288 48.9641 66.1694C48.5932 65.6985 48.3719 65.1042 48.3719 64.4583V62.524C48.3719 60.9955 49.6111 59.7563 51.1396 59.7563H52.4069C52.6251 59.7563 52.8374 59.7816 53.041 59.8293V58.4824C52.8374 58.5302 52.6251 58.5554 52.4069 58.5554H51.1396C49.6111 58.5554 48.3719 57.3163 48.3719 55.7877V53.8535C48.3719 52.3249 49.6111 51.0857 51.1396 51.0857H52.4069C52.6251 51.0857 52.8374 51.111 53.041 51.1587V49.1846C53.041 48.8345 52.7572 48.5507 52.4072 48.5507H43.1362C42.7861 48.5507 42.5023 48.8345 42.5023 49.1846V51.1587C42.7059 51.111 42.9181 51.0857 43.1362 51.0857H44.4035C45.932 51.0857 47.1712 52.3249 47.1712 53.8535V55.7877C47.1712 57.3163 45.932 58.5554 44.4035 58.5554H43.1362ZM42.5023 64.4583V62.524C42.5023 62.174 42.7861 61.8902 43.1362 61.8902H44.4035C44.7535 61.8902 45.0373 62.174 45.0373 62.524V64.4583C45.0373 64.8083 44.7535 65.0921 44.4035 65.0921H43.1362C42.7861 65.0921 42.5023 64.8083 42.5023 64.4583ZM43.1362 56.4216C42.7861 56.4216 42.5023 56.1378 42.5023 55.7877V53.8535C42.5023 53.5034 42.7861 53.2196 43.1362 53.2196H44.4035C44.7535 53.2196 45.0373 53.5034 45.0373 53.8535V55.7877C45.0373 56.1378 44.7535 56.4216 44.4035 56.4216H43.1362ZM50.5058 53.8535C50.5058 53.5034 50.7896 53.2196 51.1396 53.2196H52.4069C52.757 53.2196 53.0408 53.5034 53.0408 53.8535V55.7877C53.0408 56.1378 52.757 56.4216 52.4069 56.4216H51.1396C50.7896 56.4216 50.5058 56.1378 50.5058 55.7877V53.8535ZM50.5058 62.524C50.5058 62.174 50.7896 61.8902 51.1396 61.8902H52.4069C52.757 61.8902 53.0408 62.174 53.0408 62.524V64.4583C53.0408 64.8083 52.757 65.0921 52.4069 65.0921H51.1396C50.7896 65.0921 50.5058 64.8083 50.5058 64.4583V62.524Z" fill="#151A6A"/>
</svg>
