<svg width="74" height="74" viewBox="0 0 74 74" fill="none" xmlns="http://www.w3.org/2000/svg">
<path d="M63.7474 39.3361C60.7785 39.3213 57.9242 40.4813 55.8075 42.5632C53.6906 40.4822 50.8371 39.3222 47.8687 39.3361C46.6356 39.3585 45.4193 39.6268 44.2912 40.1251C43.163 40.6235 42.1456 41.3418 41.2986 42.2382C40.4515 43.1346 39.7918 44.191 39.358 45.3455C38.9242 46.5 38.7252 47.7295 38.7724 48.9619C38.7724 52.7555 40.9219 60.1359 55.3149 66.9462C55.4694 67.0193 55.6383 67.0572 55.8092 67.0572C55.9802 67.0572 56.149 67.0193 56.3035 66.9462C70.6942 60.1359 72.8437 52.7555 72.8437 48.9619C72.8908 47.7295 72.6916 46.5001 72.2578 45.3457C71.8239 44.1912 71.1642 43.1349 70.3172 42.2386C69.4701 41.3422 68.4528 40.6238 67.3247 40.1254C66.1966 39.6271 64.9805 39.3587 63.7474 39.3361ZM68.2187 50.1181C67.912 50.1181 67.6179 49.9963 67.4011 49.7794C67.1842 49.5626 67.0624 49.2685 67.0624 48.9619C67.1026 48.4907 67.0483 48.0162 66.9025 47.5663C66.7568 47.1164 66.5227 46.7002 66.2139 46.3421C65.9051 45.9839 65.5278 45.6911 65.1043 45.4808C64.6807 45.2705 64.2194 45.1469 63.7474 45.1173C63.4408 45.1173 63.1467 44.9955 62.9298 44.7787C62.713 44.5618 62.5912 44.2677 62.5912 43.9611C62.5912 43.6544 62.713 43.3603 62.9298 43.1435C63.1467 42.9266 63.4408 42.8048 63.7474 42.8048C67.4023 42.8048 69.3749 45.9776 69.3749 48.9619C69.3749 49.2685 69.2531 49.5626 69.0363 49.7794C68.8194 49.9963 68.5253 50.1181 68.2187 50.1181Z" fill="#C4A2FC"/>
<path d="M45.7223 34.5719C45.8769 34.645 46.0457 34.6829 46.2166 34.6829C46.3876 34.6829 46.5564 34.645 46.7109 34.5719C52.9466 31.6235 53.8797 28.3051 53.8797 26.5938C53.9 25.9991 53.8015 25.4063 53.5899 24.8501C53.3782 24.294 53.0577 23.7856 52.6471 23.3549C52.2365 22.9242 51.7441 22.5797 51.1987 22.3417C50.6533 22.1037 50.0659 21.9769 49.4709 21.9688C48.2937 21.9636 47.1487 22.3537 46.2195 23.0765C45.2892 22.3533 44.143 21.9633 42.9647 21.9688C42.3698 21.9771 41.7825 22.104 41.2372 22.342C40.6919 22.5801 40.1997 22.9246 39.7892 23.3553C39.3787 23.786 39.0583 24.2943 38.8468 24.8504C38.6352 25.4065 38.5367 25.9992 38.5571 26.5938C38.5571 28.3039 39.4878 31.6223 45.7223 34.5719Z" fill="#C4A2FC"/>
<path d="M35.5898 56.6563C34.0018 56.6492 32.4637 57.2107 31.2538 58.2392C30.0439 57.2107 28.5058 56.6492 26.9179 56.6563C26.1754 56.6678 25.4426 56.8274 24.7626 57.1256C24.0825 57.4239 23.4687 57.8548 22.9573 58.3932C22.4458 58.9315 22.0469 59.5666 21.7839 60.261C21.5209 60.9555 21.3991 61.6954 21.4257 62.4376C21.4257 64.6344 22.6386 68.8906 30.7601 72.7282C30.9146 72.8013 31.0835 72.8392 31.2544 72.8392C31.4253 72.8392 31.5942 72.8013 31.7487 72.7282C39.869 68.886 41.0819 64.6344 41.0819 62.4376C41.1087 61.6954 40.987 60.9554 40.724 60.2608C40.4611 59.5663 40.0622 58.9312 39.5507 58.3928C39.0392 57.8544 38.4254 57.4235 37.7453 57.1253C37.0651 56.8271 36.3323 56.6677 35.5898 56.6563Z" fill="#C4A2FC"/>
<path d="M58.1826 34.4121C58.7672 34.4132 59.3384 34.2371 59.8208 33.907C60.3032 33.5768 60.6742 33.1081 60.8848 32.5628C61.0954 32.0174 61.1357 31.4211 61.0003 30.8524C60.865 30.2837 60.5604 29.7693 60.1268 29.3773C59.6932 28.9852 59.1509 28.7339 58.5715 28.6564C57.992 28.5789 57.4027 28.6789 56.8813 28.9432C56.3599 29.2075 55.9309 29.6237 55.6508 30.1368C55.3708 30.65 55.2529 31.236 55.3128 31.8175C55.386 32.5282 55.7197 33.1866 56.2496 33.6657C56.7796 34.1448 57.4682 34.4107 58.1826 34.4121Z" fill="#C4A2FC"/>
<path d="M44.8335 67.0777C44.2648 67.1363 43.7262 67.3622 43.2859 67.7268C42.8456 68.0915 42.5233 68.5785 42.3598 69.1263C42.1963 69.6741 42.1988 70.2581 42.3672 70.8044C42.5356 71.3508 42.8622 71.8349 43.3057 72.1957C43.7492 72.5564 44.2897 72.7775 44.8589 72.8311C45.4281 72.8846 46.0004 72.7681 46.5034 72.4965C47.0064 72.2248 47.4175 71.81 47.6848 71.3046C47.9521 70.7993 48.0636 70.226 48.0051 69.6573C47.9662 69.2797 47.8534 68.9134 47.6729 68.5794C47.4925 68.2453 47.2481 67.9501 46.9536 67.7106C46.6591 67.4711 46.3202 67.2919 45.9565 67.1833C45.5927 67.0747 45.2111 67.0388 44.8335 67.0777Z" fill="#C4A2FC"/>
<path d="M29.8163 53.5051C30.5788 53.4267 31.2789 53.0486 31.7626 52.4541C32.2463 51.8595 32.4742 51.0972 32.3959 50.3347C32.3374 49.766 32.1115 49.2275 31.7468 48.7872C31.3822 48.3468 30.8952 48.0245 30.3474 47.861C29.7996 47.6975 29.2155 47.7001 28.6692 47.8684C28.1229 48.0368 27.6387 48.3634 27.278 48.8069C26.9172 49.2504 26.6961 49.791 26.6426 50.3601C26.589 50.9293 26.7055 51.5016 26.9772 52.0046C27.2489 52.5076 27.6636 52.9188 28.169 53.1861C28.6744 53.4534 29.2476 53.5648 29.8163 53.5063V53.5051Z" fill="#C4A2FC"/>
<path d="M57.8644 57.0586C52.1133 50.3824 47.7369 42.6494 47.7369 33.8377V19.684C47.7369 14.7701 45.7848 10.0575 42.3102 6.5829C38.8356 3.10828 34.123 1.15625 29.2091 1.15625C24.2952 1.15625 19.5826 3.10828 16.108 6.5829C12.6334 10.0575 10.6813 14.7701 10.6813 19.684V32.7496C10.7053 41.4407 7.41274 49.8135 1.47529 56.1602C1.36744 56.2696 1.28249 56.3995 1.22539 56.5421C1.16829 56.6848 1.14019 56.8373 1.14274 56.991C1.14528 57.1446 1.17842 57.2962 1.24021 57.4368C1.302 57.5775 1.3912 57.7044 1.50261 57.8102C1.61402 57.916 1.7454 57.9986 1.88907 58.053C2.03274 58.1075 2.18583 58.1327 2.33937 58.1274C2.49292 58.122 2.64386 58.086 2.78336 58.0216C2.92286 57.9573 3.04813 57.8657 3.15185 57.7524C8.88613 51.6262 12.3278 43.707 12.8944 35.335C14.4787 38.2806 16.8303 40.7428 19.7 42.4608C22.5696 44.1788 25.8506 45.0886 29.1952 45.0938C27.6157 49.1886 25.2706 52.9451 22.2855 56.1625C22.0808 56.3861 21.972 56.6812 21.9827 56.9841C21.9934 57.2871 22.1227 57.5737 22.3426 57.7823C22.5626 57.991 22.8557 58.1048 23.1588 58.0994C23.4619 58.094 23.7508 57.9698 23.9632 57.7535C27.4015 54.0469 30.0415 49.6734 31.7193 44.9041C34.6121 44.5068 37.3703 43.4325 39.7698 41.7686C42.1693 40.1046 44.1423 37.898 45.5284 35.3281C46.1343 44.1279 49.9143 52.4085 56.1659 58.6311C56.3769 58.8449 56.6629 58.9681 56.9631 58.9747C57.2634 58.9814 57.5545 58.8709 57.7748 58.6667C57.995 58.4625 58.1272 58.1806 58.1433 57.8807C58.1594 57.5808 58.0581 57.2864 57.861 57.0598L57.8644 57.0586ZM29.2103 3.46875C33.1035 3.4758 36.8645 4.88241 39.8069 7.43191C42.7493 9.98141 44.677 13.5038 45.2382 17.3565C43.6147 14.5052 41.2562 12.1416 38.4085 10.5119C35.5608 8.88216 32.3282 8.04599 29.0475 8.09051C25.7667 8.13503 22.5579 9.0586 19.7555 10.765C16.9531 12.4714 14.6596 14.8981 13.1141 17.7924C13.581 13.8494 15.4769 10.2144 18.443 7.5749C21.4091 4.93541 25.2398 3.47457 29.2103 3.46875ZM43.0749 18.5H15.1896C16.5926 16.0401 18.6214 13.9952 21.0702 12.5728C23.5189 11.1505 26.3003 10.4013 29.1322 10.4013C31.9641 10.4013 34.7455 11.1505 37.1943 12.5728C39.643 13.9952 41.6718 16.0401 43.0749 18.5ZM29.2103 42.7812C26.5807 42.796 23.9874 42.1674 21.6564 40.9502C19.3254 39.7331 17.3275 37.9644 15.8366 35.7982C14.3458 33.632 13.4074 31.134 13.1032 28.5221C12.799 25.9101 13.1381 23.2634 14.0911 20.8125H44.2184C44.9781 22.7275 45.3825 24.765 45.4116 26.825C45.3407 31.0772 43.6034 35.1315 40.5734 38.1157C37.5434 41.0998 33.463 42.7752 29.2103 42.7812Z" fill="#151A6A"/>
<path d="M30.8719 35.1664C30.4313 35.5871 29.8456 35.8219 29.2364 35.8219C28.6272 35.8219 28.0414 35.5871 27.6009 35.1664C27.3828 34.9558 27.0907 34.8392 26.7876 34.8418C26.4844 34.8445 26.1944 34.9661 25.98 35.1805C25.7656 35.3948 25.644 35.6848 25.6414 35.988C25.6388 36.2912 25.7553 36.5832 25.9659 36.8013C26.3954 37.2308 26.9053 37.5715 27.4664 37.804C28.0276 38.0364 28.629 38.156 29.2364 38.156C29.8438 38.156 30.4452 38.0364 31.0063 37.804C31.5675 37.5715 32.0774 37.2308 32.5068 36.8013C32.7175 36.5832 32.834 36.2912 32.8314 35.988C32.8287 35.6848 32.7071 35.3948 32.4927 35.1805C32.2784 34.9661 31.9884 34.8445 31.6852 34.8418C31.382 34.8392 31.09 34.9558 30.8719 35.1664Z" fill="#151A6A"/>
</svg>
