<svg width="74" height="74" viewBox="0 0 74 74" fill="none" xmlns="http://www.w3.org/2000/svg">
<path d="M43.9375 35.8438C49.6847 35.8438 54.3438 31.1847 54.3438 25.4375C54.3438 19.6903 49.6847 15.0312 43.9375 15.0312C38.1903 15.0312 33.5312 19.6903 33.5312 25.4375C33.5312 31.1847 38.1903 35.8438 43.9375 35.8438Z" fill="#C4A2FC"/>
<path d="M71.6875 24.2809H62.4375C62.1854 24.2677 61.9358 24.3374 61.7271 24.4794C61.5183 24.6214 61.3617 24.8278 61.2812 25.0671C61.1656 25.599 56.795 38.1559 43.9375 38.1559C31.08 38.1559 26.7094 25.599 26.5938 25.0671C26.5133 24.8278 26.3567 24.6214 26.1479 24.4794C25.9392 24.3374 25.6896 24.2677 25.4375 24.2809H16.1875C15.8808 24.2809 15.5867 24.4027 15.3699 24.6195C15.1531 24.8364 15.0312 25.1305 15.0312 25.4371C15.2469 29.9273 16.6432 34.2811 19.0794 38.0591C21.5155 41.8372 24.9052 44.9057 28.9062 46.9549V71.6871C28.9062 71.9938 29.0281 72.2879 29.2449 72.5047C29.4617 72.7216 29.7558 72.8434 30.0625 72.8434H57.8125C58.1192 72.8434 58.4133 72.7216 58.6301 72.5047C58.8469 72.2879 58.9688 71.9938 58.9688 71.6871V46.9549C62.9698 44.9057 66.3595 41.8372 68.7956 38.0591C71.2318 34.2811 72.6281 29.9273 72.8438 25.4371C72.8438 25.1305 72.7219 24.8364 72.5051 24.6195C72.2883 24.4027 71.9942 24.2809 71.6875 24.2809Z" fill="#C4A2FC"/>
<path d="M51.4647 8.27825L39.9022 1.34075C39.2084 0.924503 38.4222 1.15575 38.1562 2.312V28.9058H32.375C31.455 28.9058 30.5727 29.2712 29.9222 29.9217C29.2717 30.5722 28.9062 31.4545 28.9062 32.3745V38.1558H18.5C17.58 38.1558 16.6977 38.5212 16.0472 39.1717C15.3967 39.8222 15.0312 40.7045 15.0312 41.6245V47.4058H4.625C3.70503 47.4058 2.82274 47.7712 2.17222 48.4217C1.52171 49.0722 1.15625 49.9545 1.15625 50.8745V55.4995C1.15625 56.4195 1.52171 57.3018 2.17222 57.9523C2.82274 58.6028 3.70503 58.9683 4.625 58.9683H46.25C47.17 58.9683 48.0523 58.6028 48.7028 57.9523C49.3533 57.3018 49.7188 56.4195 49.7188 55.4995V32.3745C49.7188 31.4545 49.3533 30.5722 48.7028 29.9217C48.0523 29.2712 47.17 28.9058 46.25 28.9058H40.4688V16.8692L51.4647 10.267C51.6372 10.1646 51.7802 10.0191 51.8794 9.84477C51.9787 9.67043 52.0309 9.47325 52.0309 9.27263C52.0309 9.072 51.9787 8.87483 51.8794 8.70048C51.7802 8.52614 51.6372 8.38063 51.4647 8.27825ZM17.3438 41.6245C17.3438 41.3178 17.4656 41.0238 17.6824 40.8069C17.8992 40.5901 18.1933 40.4683 18.5 40.4683H47.4062V47.4058H17.3438V41.6245ZM47.4062 55.4995C47.4062 55.8062 47.2844 56.1003 47.0676 56.3171C46.8508 56.5339 46.5567 56.6558 46.25 56.6558H4.625C4.31834 56.6558 4.02425 56.5339 3.80741 56.3171C3.59057 56.1003 3.46875 55.8062 3.46875 55.4995V50.8745C3.46875 50.5678 3.59057 50.2738 3.80741 50.0569C4.02425 49.8401 4.31834 49.7183 4.625 49.7183H47.4062V55.4995ZM47.4062 32.3745V38.1558H31.2188V32.3745C31.2188 32.0678 31.3406 31.7737 31.5574 31.5569C31.7742 31.3401 32.0683 31.2183 32.375 31.2183H46.25C46.5567 31.2183 46.8508 31.3401 47.0676 31.5569C47.2844 31.7737 47.4062 32.0678 47.4062 32.3745ZM40.4688 14.1751V4.38169L48.6319 9.2495L40.4688 14.1751Z" fill="#151A6A"/>
</svg>
