<svg width="74" height="74" viewBox="0 0 74 74" fill="none" xmlns="http://www.w3.org/2000/svg">
<path d="M64.7503 34.6186H47.9731L53.4306 28.7448C54.2767 27.8542 54.8628 26.7489 55.1254 25.5489C55.3881 24.3488 55.3172 23.0998 54.9205 21.9371C54.5238 20.7745 53.8165 19.7426 52.8751 18.9534C51.9337 18.1641 50.7943 17.6476 49.5803 17.4598C48.3444 17.2278 47.069 17.3281 45.8846 17.7507C44.7002 18.1733 43.6493 18.9029 42.8393 19.8648L30.9068 34.0058C30.4922 34.3727 30.1596 34.8228 29.9305 35.3268C29.7014 35.8308 29.581 36.3774 29.5771 36.9311V71.6879C29.5771 71.9946 29.699 72.2887 29.9158 72.5055C30.1326 72.7224 30.4267 72.8442 30.7334 72.8442H60.1253C63.4488 72.8844 66.653 71.6065 69.0366 69.29C71.4202 66.9736 72.7892 63.8072 72.844 60.4839V42.4926C72.8105 40.3766 71.9401 38.36 70.4231 36.8842C68.9062 35.4085 66.8665 34.5938 64.7503 34.6186Z" fill="#C4A2FC"/>
<path d="M25.8884 34.6184H21.6334C19.9382 34.5654 18.2912 35.1868 17.0535 36.3464C15.8158 37.5061 15.0886 39.1092 15.0312 40.8043V66.6581C15.0886 68.3531 15.8158 69.9563 17.0535 71.1159C18.2912 72.2756 19.9382 72.897 21.6334 72.844H25.8884C26.1951 72.844 26.4892 72.7222 26.706 72.5053C26.9229 72.2885 27.0447 71.9944 27.0447 71.6877V35.7515C27.0386 35.4489 26.9141 35.1607 26.698 34.9488C26.4818 34.7369 26.1911 34.6183 25.8884 34.6184Z" fill="#C4A2FC"/>
<path d="M43.1166 1.50218C43.1166 1.50218 38.1563 6.47406 33.5313 6.47406C28.9063 6.47406 24.0038 1.54843 23.9459 1.50218C23.8385 1.39381 23.7106 1.30779 23.5697 1.24909C23.4288 1.19039 23.2777 1.16017 23.125 1.16017C22.9724 1.16017 22.8212 1.19039 22.6803 1.24909C22.5394 1.30779 22.4116 1.39381 22.3041 1.50218C22.2463 1.54843 17.3438 6.47406 12.7188 6.47406C8.09376 6.47406 3.19126 1.54843 3.13345 1.50218C2.97242 1.33982 2.76686 1.22885 2.54276 1.18332C2.31866 1.13778 2.0861 1.15971 1.87446 1.24634C1.66283 1.33298 1.48164 1.48042 1.3538 1.67002C1.22597 1.85963 1.15722 2.08288 1.15626 2.31156V36.5366C1.10075 42.4226 3.38275 48.0903 7.50145 52.2957C11.6201 56.5011 17.239 58.9007 23.125 58.9678C29.011 58.9007 34.6299 56.5011 38.7486 52.2957C42.8673 48.0903 45.1493 42.4226 45.0938 36.5366V2.31156C45.0928 2.08288 45.0241 1.85963 44.8962 1.67002C44.7684 1.48042 44.5872 1.33298 44.3756 1.24634C44.1639 1.15971 43.9314 1.13778 43.7073 1.18332C43.4832 1.22885 43.2776 1.33982 43.1166 1.50218ZM42.7813 36.5366C42.8368 41.8093 40.7985 46.8888 37.1134 50.6606C33.4284 54.4323 28.3977 56.5882 23.125 56.6553C17.8524 56.5882 12.8216 54.4323 9.1366 50.6606C5.45157 46.8888 3.41322 41.8093 3.46876 36.5366V4.86687C5.57314 6.53187 9.0997 8.78656 12.7188 8.78656C17.1241 8.78656 21.3791 5.45656 23.125 3.89562C24.871 5.45656 29.126 8.78656 33.5313 8.78656C37.1503 8.78656 40.6769 6.53187 42.7813 4.86687V36.5366Z" fill="#151A6A"/>
<path d="M6.9375 14.2793V36.1324C6.9375 40.4256 8.64296 44.543 11.6787 47.5787C14.7145 50.6145 18.8318 52.3199 23.125 52.3199C27.4182 52.3199 31.5355 50.6145 34.5713 47.5787C37.607 44.543 39.3125 40.4256 39.3125 36.1324V14.2793C39.3125 13.9726 39.1907 13.6785 38.9738 13.4617C38.757 13.2449 38.4629 13.123 38.1562 13.123H8.09375C7.78709 13.123 7.493 13.2449 7.27616 13.4617C7.05932 13.6785 6.9375 13.9726 6.9375 14.2793ZM9.25 15.4355H37V36.1324C37 39.8123 35.5382 43.3415 32.9361 45.9435C30.334 48.5456 26.8049 50.0074 23.125 50.0074C19.4451 50.0074 15.916 48.5456 13.3139 45.9435C10.7118 43.3415 9.25 39.8123 9.25 36.1324V15.4355Z" fill="#151A6A"/>
<path d="M21.2863 39.8436L33.2534 27.8765C33.3612 27.7686 33.4468 27.6407 33.5051 27.4998C33.5635 27.3589 33.5935 27.208 33.5935 27.0555C33.5935 26.903 33.5635 26.7521 33.5051 26.6112C33.4468 26.4704 33.3612 26.3424 33.2534 26.2346C33.1456 26.1268 33.0177 26.0412 32.8768 25.9829C32.7359 25.9246 32.585 25.8945 32.4325 25.8945C32.28 25.8945 32.1291 25.9246 31.9882 25.9829C31.8474 26.0412 31.7194 26.1268 31.6116 26.2346L20.4653 37.3924L14.6841 31.5533C14.5763 31.4455 14.4483 31.36 14.3074 31.3017C14.1666 31.2433 14.0156 31.2133 13.8631 31.2133C13.7107 31.2133 13.5597 31.2433 13.4188 31.3017C13.278 31.36 13.15 31.4455 13.0422 31.5533C12.9344 31.6611 12.8489 31.7891 12.7905 31.93C12.7322 32.0708 12.7021 32.2218 12.7021 32.3743C12.7021 32.5267 12.7322 32.6777 12.7905 32.8186C12.8489 32.9594 12.9344 33.0874 13.0422 33.1952L19.6559 39.8436C19.8726 40.059 20.1656 40.1799 20.4711 40.1799C20.7766 40.1799 21.0696 40.059 21.2863 39.8436Z" fill="#151A6A"/>
</svg>
