<svg width="74" height="74" viewBox="0 0 74 74" fill="none" xmlns="http://www.w3.org/2000/svg">
<path d="M63.5938 15.0312H18.5C16.5344 15.0312 15.0312 16.5344 15.0312 18.5V54.3438C15.0312 56.3094 16.5344 57.8125 18.5 57.8125H24.2812V65.9062C24.2812 66.9469 25.5531 67.4094 26.2469 66.7156L35.15 57.8125H65.9062C66.6 57.8125 67.0625 57.35 67.0625 56.6562V18.5C67.0625 16.5344 65.5594 15.0312 63.5938 15.0312ZM26.5938 41.625C24.05 41.625 21.9688 39.5438 21.9688 37C21.9688 34.4562 24.05 32.375 26.5938 32.375C29.1375 32.375 31.2188 34.4562 31.2188 37C31.2188 39.5438 29.1375 41.625 26.5938 41.625ZM41.0469 41.0469C38.5031 41.0469 36.4219 38.9656 36.4219 36.4219C36.4219 33.8781 38.5031 31.7969 41.0469 31.7969C43.5906 31.7969 45.6719 33.8781 45.6719 36.4219C45.6719 38.9656 43.5906 41.0469 41.0469 41.0469ZM55.5 41.625C52.9562 41.625 50.875 39.5438 50.875 37C50.875 34.4562 52.9562 32.375 55.5 32.375C58.0438 32.375 60.125 34.4562 60.125 37C60.125 39.5438 58.0438 41.625 55.5 41.625Z" fill="#C39FFF"/>
<path d="M69.3754 20.8125V56.6562C69.3754 58.6219 67.8723 60.125 65.9067 60.125H36.0754L32.6067 63.5938H52.6098L61.5129 72.4969C62.2067 73.1906 63.4786 72.7281 63.4786 71.6875V63.5938H69.2598C71.2254 63.5938 72.7286 62.0906 72.7286 60.125V24.2812C72.8442 22.3156 71.3411 20.8125 69.3754 20.8125Z" fill="#C39FFF"/>
<path d="M51.4531 34.6875H55.5C57.4656 34.6875 58.9688 33.1844 58.9688 31.2188V4.625C58.9688 2.65937 57.4656 1.15625 55.5 1.15625H4.625C2.65937 1.15625 1.15625 2.65937 1.15625 4.625V35.8438C1.15625 36.5375 1.61875 37 2.3125 37H30.0625C30.7563 37 31.2188 36.5375 31.2188 35.8438C31.2188 35.4969 31.2188 35.0344 31.1031 34.6875H34.1094C34.225 37.2313 35.6125 39.5438 37.5781 41.0469C31.2188 42.7812 26.5938 48.5625 26.5938 55.5V56.6562C26.5938 57.35 27.0562 57.8125 27.75 57.8125H57.8125C58.5062 57.8125 58.9688 57.35 58.9688 56.6562V55.5C58.9688 48.5625 54.3438 42.7812 47.9844 41.0469C49.95 39.5438 51.2219 37.2313 51.4531 34.6875ZM3.46875 34.6875C4.04688 28.2125 9.48125 23.125 16.1875 23.125C22.8938 23.125 28.2125 28.2125 28.9062 34.6875H3.46875ZM10.4062 15.0312C10.4062 11.7937 12.95 9.25 16.1875 9.25C19.425 9.25 21.9688 11.7937 21.9688 15.0312C21.9688 18.2687 19.425 20.8125 16.1875 20.8125C12.95 20.8125 10.4062 18.2687 10.4062 15.0312ZM30.7563 32.375C29.6 27.2875 25.7844 23.2406 20.9281 21.6219C23.0094 20.1188 24.2812 17.8062 24.2812 15.0312C24.2812 10.5219 20.6969 6.9375 16.1875 6.9375C11.6781 6.9375 8.09375 10.5219 8.09375 15.0312C8.09375 17.6906 9.48125 20.1188 11.4469 21.6219C8.09375 22.7781 5.31875 24.975 3.46875 27.8656V4.625C3.46875 3.93125 3.93125 3.46875 4.625 3.46875H55.5C56.1937 3.46875 56.6562 3.93125 56.6562 4.625V31.2188C56.6562 31.9125 56.1937 32.375 55.5 32.375H51.2219C50.4125 28.4438 46.9437 25.4375 42.7812 25.4375C38.6188 25.4375 35.0344 28.4438 34.3406 32.375H30.7563ZM56.6562 55.5H28.9062C28.9062 48.4469 34.5719 42.7812 41.625 42.7812H43.9375C50.9906 42.7812 56.6562 48.4469 56.6562 55.5ZM42.7812 40.4688C39.3125 40.4688 36.4219 37.5781 36.4219 34.1094C36.4219 30.6406 39.3125 27.75 42.7812 27.75C46.25 27.75 49.1406 30.6406 49.1406 34.1094C49.1406 37.5781 46.25 40.4688 42.7812 40.4688Z" fill="#14166C"/>
<path d="M28.9062 11.5625H52.0312C52.725 11.5625 53.1875 11.1 53.1875 10.4062C53.1875 9.7125 52.725 9.25 52.0312 9.25H28.9062C28.2125 9.25 27.75 9.7125 27.75 10.4062C27.75 11.1 28.2125 11.5625 28.9062 11.5625Z" fill="#14166C"/>
<path d="M53.1875 21.9688C53.1875 21.275 52.725 20.8125 52.0312 20.8125H28.9062C28.2125 20.8125 27.75 21.275 27.75 21.9688C27.75 22.6625 28.2125 23.125 28.9062 23.125H52.0312C52.725 23.125 53.1875 22.6625 53.1875 21.9688Z" fill="#14166C"/>
<path d="M28.9062 17.3438H52.0312C52.725 17.3438 53.1875 16.8813 53.1875 16.1875C53.1875 15.4937 52.725 15.0312 52.0312 15.0312H28.9062C28.2125 15.0312 27.75 15.4937 27.75 16.1875C27.75 16.8813 28.2125 17.3438 28.9062 17.3438Z" fill="#14166C"/>
</svg>
