<svg width="20" height="21" viewBox="0 0 20 21" fill="none" xmlns="http://www.w3.org/2000/svg">
<path d="M9.47225 0.00171029C7.78197 0.0244604 4.14502 0.300961 2.11054 2.15859C0.600265 3.65485 0.0725473 5.86073 0.0110826 8.59249C-0.0416013 11.3137 -0.103066 16.4238 4.84045 17.8159V19.9334C4.84045 19.9334 4.80708 20.7822 5.36904 20.9572C6.06272 21.1759 6.45785 20.5205 7.1164 19.8205L8.34569 18.438C11.7262 18.718 14.3165 18.0714 14.6151 17.9751C15.3 17.7564 19.1643 17.2655 19.7966 12.1546C20.4463 6.87748 19.4804 3.55247 17.7419 2.04747L17.7331 2.04572C17.2063 1.56447 15.0989 0.0332104 10.3837 0.0157103C10.3837 0.0157103 10.036 -0.00616474 9.47225 0.00171029ZM9.53108 1.48659C10.0096 1.48397 10.3038 1.50409 10.3038 1.50409C14.2902 1.51284 16.1965 2.71159 16.6443 3.1141C18.1107 4.36447 18.864 7.36311 18.3126 11.7696C17.7858 16.0396 14.6511 16.3109 14.0716 16.4946C13.8257 16.5734 11.5427 17.1334 8.66969 16.9496C8.66969 16.9496 6.52809 19.523 5.86076 20.188C5.75539 20.3018 5.63246 20.3368 5.55344 20.3193C5.43929 20.293 5.40417 20.153 5.41295 19.9605L5.43051 16.4439C1.24125 15.2889 1.48711 10.9296 1.53102 8.65461C1.5837 6.37961 2.01395 4.5141 3.28715 3.2541C5.00552 1.70534 8.09456 1.49534 9.5302 1.48659H9.53108ZM9.84718 3.7616C9.81263 3.76148 9.7784 3.76816 9.74644 3.78126C9.71449 3.79436 9.68544 3.81361 9.66097 3.83792C9.6365 3.86222 9.61708 3.8911 9.60383 3.9229C9.59058 3.9547 9.58376 3.98879 9.58376 4.02322C9.58376 4.09284 9.61152 4.15961 9.66092 4.20884C9.71032 4.25807 9.77732 4.28572 9.84718 4.28572C10.5 4.27331 11.1488 4.38987 11.7561 4.62866C12.3635 4.86745 12.9174 5.22374 13.3858 5.67698C14.3429 6.60448 14.8091 7.84699 14.8267 9.47449C14.8267 9.50896 14.8335 9.5431 14.8467 9.57495C14.86 9.60679 14.8794 9.63573 14.9038 9.66011C14.9283 9.68448 14.9573 9.70382 14.9893 9.71701C15.0213 9.7302 15.0555 9.73699 15.0901 9.73699V9.72912C15.16 9.72912 15.227 9.70146 15.2764 9.65223C15.3258 9.603 15.3535 9.53624 15.3535 9.46662C15.3861 8.70124 15.262 7.93726 14.9888 7.22122C14.7155 6.50517 14.2989 5.85204 13.7642 5.3016C12.7193 4.2866 11.4014 3.7616 9.84718 3.7616ZM6.37531 4.36535C6.18858 4.33883 5.99833 4.37582 5.8353 4.47035H5.82476C5.46475 4.68035 5.13284 4.94285 4.81674 5.29285C4.57966 5.57285 4.44707 5.85198 4.41195 6.12323C4.39129 6.28232 4.40628 6.44399 4.45585 6.59661L4.47342 6.60536C4.74406 7.39824 5.09721 8.16072 5.5271 8.88036C6.08433 9.88821 6.76895 10.8207 7.56421 11.655L7.59055 11.69L7.62567 11.7162L7.65202 11.7425L7.67836 11.7687C8.51887 12.5632 9.4571 13.2483 10.4706 13.8075C11.6297 14.4375 12.3339 14.735 12.7553 14.8575V14.8663C12.8783 14.9013 12.9907 14.9188 13.1048 14.9188C13.4646 14.8926 13.8052 14.7472 14.0724 14.5058C14.4149 14.1995 14.6871 13.86 14.889 13.5013V13.4925C15.091 13.1163 15.0207 12.7566 14.731 12.5116C14.147 12.0025 13.5148 11.5513 12.8431 11.1641C12.3953 10.9191 11.9387 11.0679 11.7543 11.3129L11.3592 11.8107C11.1573 12.0557 10.7885 12.0207 10.7885 12.0207L10.7779 12.0295C8.03837 11.3295 7.30957 8.56536 7.30957 8.56536C7.30957 8.56536 7.27445 8.18911 7.52909 7.99661L8.0208 7.60286C8.25788 7.41036 8.42471 6.95536 8.17007 6.50911C7.7821 5.8395 7.3292 5.2094 6.81785 4.62785C6.70662 4.49038 6.5496 4.39724 6.37531 4.36535ZM10.3029 5.1441C10.233 5.14433 10.1661 5.17221 10.1169 5.22161C10.0677 5.271 10.0401 5.33786 10.0404 5.40748C10.0406 5.4771 10.0686 5.54377 10.1181 5.59284C10.1677 5.6419 10.2348 5.66934 10.3047 5.6691C11.1834 5.6843 12.0202 6.04618 12.6315 6.67536C12.9073 6.97856 13.1194 7.33377 13.2551 7.72001C13.3908 8.10625 13.4475 8.51568 13.4218 8.92411C13.422 8.99358 13.4499 9.06013 13.4993 9.10917C13.5486 9.1582 13.6155 9.18574 13.6852 9.18574L13.694 9.19624C13.7287 9.19624 13.763 9.18942 13.795 9.17617C13.827 9.16293 13.8561 9.14351 13.8806 9.11905C13.905 9.09458 13.9244 9.06554 13.9376 9.03359C13.9508 9.00164 13.9575 8.96741 13.9574 8.93286C13.9838 7.89161 13.6589 7.01661 13.0179 6.31661C12.3769 5.6166 11.4813 5.22285 10.3398 5.1441C10.3275 5.14324 10.3152 5.14324 10.3029 5.1441ZM10.7331 6.56073C10.6979 6.5597 10.6628 6.56559 10.6299 6.57807C10.597 6.59054 10.5668 6.60937 10.5412 6.63346C10.5155 6.65755 10.4949 6.68644 10.4804 6.71847C10.466 6.75051 10.458 6.78507 10.457 6.82017C10.456 6.85527 10.4619 6.89024 10.4744 6.92307C10.4869 6.95589 10.5058 6.98594 10.53 7.0115C10.5542 7.03705 10.5831 7.05761 10.6153 7.072C10.6474 7.08639 10.6821 7.09432 10.7173 7.09536C11.5866 7.13911 12.0081 7.57661 12.0608 8.47786C12.0631 8.54595 12.0918 8.6105 12.141 8.65785C12.1901 8.7052 12.2558 8.73165 12.3242 8.73161H12.333C12.3684 8.73052 12.4032 8.72233 12.4353 8.70753C12.4674 8.69274 12.4962 8.67165 12.52 8.64551C12.5438 8.61938 12.562 8.58874 12.5736 8.55542C12.5852 8.52211 12.59 8.4868 12.5876 8.45161C12.5262 7.27911 11.8852 6.62198 10.7437 6.56073C10.7402 6.56066 10.7367 6.56066 10.7331 6.56073Z" fill="white"/>
</svg>
