<svg width="129" height="24" viewBox="0 0 129 24" fill="none" xmlns="http://www.w3.org/2000/svg">
<path d="M5.05853 0.224532C3.33913 0.224532 2.6414 1.19751 2.31746 3.06861L0.149513 15.1684C0.0498377 15.6923 0 16.0915 0 16.3909C0 17.7131 0.822323 18.4865 1.96859 18.4865C3.21454 18.4865 3.83751 17.6632 4.0867 15.8919L5.48215 5.53846H5.50707L8.09864 16.4657C8.47242 17.9875 9.14523 18.4865 10.4659 18.4865C11.986 18.4865 12.4345 17.5634 12.7086 16.4657L15.4497 5.53846H15.4746L16.7206 16.1414C16.895 17.7131 17.5678 18.4865 18.7141 18.4865C19.9102 18.4865 20.7574 17.7131 20.7574 16.3909C20.7574 16.1663 20.7325 15.842 20.6578 15.4179L18.6892 3.21829C18.3652 1.2474 17.6177 0.224532 15.8484 0.224532C14.3782 0.224532 13.4562 1.12266 13.0824 2.66944L10.5656 13.2973L7.87437 2.69439C7.47567 1.07277 6.55367 0.224532 5.05853 0.224532Z" fill="white"/>
<path d="M28.411 8.23285C29.8314 8.23285 30.9777 9.65489 30.9777 11.5759C30.9777 13.5218 29.8563 14.9938 28.411 14.9938C26.9657 14.9938 25.8693 13.5717 25.8693 11.5759C25.8693 9.62994 26.9907 8.23285 28.411 8.23285ZM31.0774 17.0644C31.501 18.0125 32.0741 18.4366 32.9463 18.4366C34.267 18.4366 34.8899 17.4886 34.8899 15.5676V7.65904C34.8899 5.73805 34.2919 4.81497 32.9463 4.81497C32.1489 4.81497 31.5259 5.26403 31.0774 6.06237C30.2799 5.11435 29.2832 4.64033 27.9376 4.64033C24.5984 4.64033 21.8324 7.6341 21.8324 11.6258C21.8324 15.7422 24.5735 18.5863 27.7881 18.5863C29.1337 18.5863 30.2799 18.0374 31.0774 17.0644Z" fill="white"/>
<path d="M39.5383 4.81497C38.1927 4.81497 37.5697 5.73805 37.5697 7.65904V15.5676C37.5697 17.4886 38.1927 18.4366 39.5383 18.4366C40.8839 18.4366 41.482 17.4636 41.482 15.5426V11.052C41.482 9.08108 42.1298 8.18295 43.625 8.18295C45.2198 8.18295 45.7182 9.05613 45.7182 11.1268V15.5676C45.7182 17.4886 46.3411 18.4366 47.6868 18.4366C49.0324 18.4366 49.6304 17.4636 49.6304 15.5426V9.90437C49.6304 6.48649 47.911 4.81497 44.846 4.81497C43.326 4.81497 42.2794 5.11435 41.4072 6.06237C40.9337 5.21414 40.3108 4.81497 39.5383 4.81497Z" fill="white"/>
<path d="M58.1975 8.23285C59.6428 8.23285 60.8139 9.62994 60.8139 11.6258C60.8139 13.5967 59.6677 14.8441 58.1975 14.8441C56.7273 14.8441 55.6308 13.6466 55.6308 11.6258C55.6308 9.65488 56.7522 8.23285 58.1975 8.23285ZM60.8389 6.06237C60.0415 5.11435 59.0198 4.64033 57.6742 4.64033C54.335 4.64033 51.594 7.6341 51.594 11.6258C51.594 15.6175 54.1855 18.4366 57.2755 18.4366C58.8204 18.4366 59.9667 17.8378 60.8139 16.6154V17.0894C60.8139 19.2349 59.7175 20.4075 57.7988 20.4075C55.7305 20.4075 54.5593 19.3597 53.5875 19.3597C52.6156 19.3597 51.893 20.0832 51.893 21.0811C51.893 22.6279 54.0609 24 57.6493 24C62.957 24 64.5518 20.8316 64.5518 15.5676V7.65904C64.5518 5.73805 63.9288 4.81497 62.5832 4.81497C61.9851 4.81497 61.2874 5.23909 60.8389 6.06237Z" fill="white"/>
<path d="M69.2025 4.81497C67.8568 4.81497 67.2339 5.73805 67.2339 7.65904V12.8981C67.2339 16.6653 69.352 18.5863 73.1646 18.5863C76.9772 18.5863 79.0953 16.6653 79.0953 12.8981V7.65904C79.0953 5.73805 78.4972 4.81497 77.1516 4.81497C75.806 4.81497 75.183 5.73805 75.183 7.65904V12.0998C75.183 13.9459 74.7594 14.9938 73.1646 14.9938C71.5698 14.9938 71.1461 13.9459 71.1461 12.0998V7.65904C71.1461 5.73805 70.5232 4.81497 69.2025 4.81497Z" fill="white"/>
<path d="M86.0472 4.24116H87.7916C89.6605 4.24116 90.5576 4.96466 90.5576 6.56133C90.5576 8.10811 89.6356 8.90644 87.7916 8.90644H86.0472V4.24116ZM84.8013 0.523909C82.5586 0.523909 82.0104 1.39709 82.0104 3.36798V15.6175C82.0104 17.5385 82.6583 18.4865 84.0288 18.4865C85.3993 18.4865 86.0472 17.5385 86.0472 15.6175V12.5738H88.7634C92.6757 12.5738 94.9433 10.2786 94.9433 6.56133C94.9433 2.89397 92.5012 0.523909 88.4395 0.523909H84.8013Z" fill="white"/>
<path d="M101.305 4.26611H103.224C104.844 4.26611 105.741 5.0395 105.741 6.36175C105.741 7.73389 104.819 8.55717 103.174 8.55717H101.305V4.26611ZM100.059 0.523909C97.8165 0.523909 97.2683 1.39709 97.2683 3.36798V15.6175C97.2683 17.5385 97.9162 18.4865 99.2868 18.4865C100.657 18.4865 101.305 17.5385 101.305 15.6175V11.2516L106.015 17.1642C106.762 18.0873 107.385 18.4865 108.183 18.4865C109.304 18.4865 110.102 17.763 110.102 16.7152C110.102 16.0665 109.703 15.2931 108.905 14.395L105.716 10.8524C108.382 10.4033 109.952 8.58212 109.952 6.06237C109.952 2.79418 107.56 0.523909 103.199 0.523909H100.059Z" fill="white"/>
<path d="M120.303 0C115.145 0 111.607 3.76715 111.607 9.4054C111.607 15.0187 115.07 18.7859 120.303 18.7859C125.536 18.7859 129 14.9938 129 9.4054C129 3.7422 125.462 0 120.303 0ZM120.303 3.86694C122.87 3.86694 124.614 5.93763 124.614 9.4553C124.614 12.8233 122.845 14.9189 120.303 14.9189C117.762 14.9189 115.992 12.8233 115.992 9.4553C115.992 5.93763 117.737 3.86694 120.303 3.86694Z" fill="white"/>
</svg>
