<svg width="74" height="74" viewBox="0 0 74 74" fill="none" xmlns="http://www.w3.org/2000/svg">
<path d="M72.6126 36.2993L54.1126 12.0181C54.0002 11.8831 53.8595 11.7746 53.7005 11.7001C53.5414 11.6255 53.3679 11.5869 53.1923 11.5869C53.0166 11.5869 52.8431 11.6255 52.6841 11.7001C52.525 11.7746 52.3843 11.8831 52.2719 12.0181L33.7719 36.2993C33.6415 36.4705 33.5615 36.6746 33.5408 36.8887C33.5201 37.1028 33.5595 37.3185 33.6546 37.5114C33.7498 37.7044 33.8969 37.867 34.0794 37.9809C34.2619 38.0948 34.4725 38.1555 34.6877 38.1563H42.7814V68.2188C42.7814 68.5254 42.9032 68.8195 43.1201 69.0364C43.3369 69.2532 43.631 69.375 43.9377 69.375H62.4377C62.7443 69.375 63.0384 69.2532 63.2552 69.0364C63.4721 68.8195 63.5939 68.5254 63.5939 68.2188V38.1563H71.6876C71.9036 38.1573 72.1154 38.0978 72.2993 37.9845C72.4831 37.8713 72.6316 37.7089 72.7279 37.5156C72.8241 37.3223 72.8644 37.106 72.844 36.891C72.8236 36.6761 72.7435 36.4711 72.6126 36.2993ZM60.1252 64.75C60.1252 65.0567 60.0033 65.3508 59.7865 65.5676C59.5697 65.7845 59.2756 65.9063 58.9689 65.9063H54.3439C54.0372 65.9063 53.7431 65.7845 53.5263 65.5676C53.3095 65.3508 53.1877 65.0567 53.1877 64.75C53.1877 64.4434 53.3095 64.1493 53.5263 63.9324C53.7431 63.7156 54.0372 63.5938 54.3439 63.5938H57.8127V60.125C57.8127 59.8184 57.9345 59.5243 58.1513 59.3074C58.3681 59.0906 58.6622 58.9688 58.9689 58.9688C59.2756 58.9688 59.5697 59.0906 59.7865 59.3074C60.0033 59.5243 60.1252 59.8184 60.1252 60.125V64.75Z" fill="#C4A2FC"/>
<path d="M58.6299 33.8698L47.0674 22.3073C42.5541 17.8043 36.439 15.2754 30.0635 15.2754C23.6881 15.2754 17.573 17.8043 13.0597 22.3073L1.49723 33.8698C1.28046 34.0867 1.15869 34.3807 1.15869 34.6873C1.15869 34.9939 1.28046 35.2879 1.49723 35.5048L13.0597 47.0673C17.5728 51.5706 23.688 54.0997 30.0635 54.0997C36.4391 54.0997 42.5543 51.5706 47.0674 47.0673L58.6299 35.5048C58.8466 35.2879 58.9684 34.9939 58.9684 34.6873C58.9684 34.3807 58.8466 34.0867 58.6299 33.8698ZM45.4313 45.4323C41.3517 49.5018 35.8246 51.7872 30.0624 51.7872C24.3001 51.7872 18.7731 49.5018 14.6935 45.4323L3.94732 34.6873L14.6935 23.9411C18.7731 19.8716 24.3001 17.5862 30.0624 17.5862C35.8246 17.5862 41.3517 19.8716 45.4313 23.9411L56.1774 34.6873L45.4313 45.4323Z" fill="#151A6A"/>
<path d="M30.0625 30.0625C29.1478 30.0625 28.2536 30.3338 27.493 30.842C26.7324 31.3502 26.1396 32.0725 25.7896 32.9176C25.4395 33.7627 25.3479 34.6926 25.5264 35.5898C25.7048 36.487 26.1453 37.3111 26.7921 37.9579C27.439 38.6047 28.263 39.0452 29.1602 39.2236C30.0574 39.4021 30.9873 39.3105 31.8324 38.9605C32.6775 38.6104 33.3998 38.0176 33.9081 37.257C34.4163 36.4964 34.6875 35.6022 34.6875 34.6875C34.6875 33.4609 34.2002 32.2845 33.3329 31.4171C32.4655 30.5498 31.2891 30.0625 30.0625 30.0625ZM30.0625 37C29.6051 37 29.158 36.8644 28.7777 36.6103C28.3975 36.3562 28.1011 35.995 27.926 35.5725C27.751 35.1499 27.7052 34.6849 27.7944 34.2364C27.8837 33.7878 28.1039 33.3757 28.4273 33.0523C28.7507 32.7289 29.1628 32.5087 29.6114 32.4194C30.0599 32.3302 30.5249 32.376 30.9475 32.551C31.37 32.7261 31.7312 33.0225 31.9853 33.4027C32.2394 33.783 32.375 34.2301 32.375 34.6875C32.375 35.3008 32.1314 35.889 31.6977 36.3227C31.264 36.7564 30.6758 37 30.0625 37Z" fill="#151A6A"/>
<path d="M43.9375 33.5312H42.7223C42.4486 30.5727 41.1487 27.8031 39.0478 25.7022C36.9469 23.6013 34.1773 22.3014 31.2188 22.0277V20.8125C31.2188 20.5058 31.0969 20.2117 30.8801 19.9949C30.6633 19.7781 30.3692 19.6562 30.0625 19.6562C29.7558 19.6562 29.4617 19.7781 29.2449 19.9949C29.0281 20.2117 28.9062 20.5058 28.9062 20.8125V22.0277C25.9477 22.3014 23.1781 23.6013 21.0772 25.7022C18.9763 27.8031 17.6764 30.5727 17.4027 33.5312H16.1875C15.8808 33.5312 15.5867 33.6531 15.3699 33.8699C15.1531 34.0867 15.0312 34.3808 15.0312 34.6875C15.0312 34.9942 15.1531 35.2883 15.3699 35.5051C15.5867 35.7219 15.8808 35.8438 16.1875 35.8438H17.4027C17.6764 38.8023 18.9763 41.5719 21.0772 43.6728C23.1781 45.7737 25.9477 47.0736 28.9062 47.3473V48.5625C28.9062 48.8692 29.0281 49.1633 29.2449 49.3801C29.4617 49.5969 29.7558 49.7188 30.0625 49.7188C30.3692 49.7188 30.6633 49.5969 30.8801 49.3801C31.0969 49.1633 31.2188 48.8692 31.2188 48.5625V47.3473C34.1773 47.0736 36.9469 45.7737 39.0478 43.6728C41.1487 41.5719 42.4486 38.8023 42.7223 35.8438H43.9375C44.2442 35.8438 44.5383 35.7219 44.7551 35.5051C44.9719 35.2883 45.0938 34.9942 45.0938 34.6875C45.0938 34.3808 44.9719 34.0867 44.7551 33.8699C44.5383 33.6531 44.2442 33.5312 43.9375 33.5312ZM31.2188 45.0255V43.9375C31.2188 43.6308 31.0969 43.3367 30.8801 43.1199C30.6633 42.9031 30.3692 42.7812 30.0625 42.7812C29.7558 42.7812 29.4617 42.9031 29.2449 43.1199C29.0281 43.3367 28.9062 43.6308 28.9062 43.9375V45.0255C26.5625 44.7602 24.3782 43.7075 22.7103 42.0397C21.0425 40.3718 19.9898 38.1875 19.7245 35.8438H20.8125C21.1192 35.8438 21.4133 35.7219 21.6301 35.5051C21.8469 35.2883 21.9688 34.9942 21.9688 34.6875C21.9688 34.3808 21.8469 34.0867 21.6301 33.8699C21.4133 33.6531 21.1192 33.5312 20.8125 33.5312H19.7245C19.9898 31.1875 21.0425 29.0032 22.7103 27.3353C24.3782 25.6675 26.5625 24.6148 28.9062 24.3495V25.4375C28.9062 25.7442 29.0281 26.0383 29.2449 26.2551C29.4617 26.4719 29.7558 26.5938 30.0625 26.5938C30.3692 26.5938 30.6633 26.4719 30.8801 26.2551C31.0969 26.0383 31.2188 25.7442 31.2188 25.4375V24.3495C33.5625 24.6148 35.7468 25.6675 37.4147 27.3353C39.0825 29.0032 40.1352 31.1875 40.4005 33.5312H39.3125C39.0058 33.5312 38.7117 33.6531 38.4949 33.8699C38.2781 34.0867 38.1562 34.3808 38.1562 34.6875C38.1562 34.9942 38.2781 35.2883 38.4949 35.5051C38.7117 35.7219 39.0058 35.8438 39.3125 35.8438H40.4005C40.1352 38.1875 39.0825 40.3718 37.4147 42.0397C35.7468 43.7075 33.5625 44.7602 31.2188 45.0255Z" fill="#151A6A"/>
<path d="M1.70666 25.2664C1.83601 25.346 1.97979 25.3993 2.12976 25.4233C2.27974 25.4474 2.43298 25.4416 2.58073 25.4064C2.72848 25.3711 2.86784 25.3072 2.99085 25.2181C3.11386 25.129 3.21812 25.0165 3.29766 24.8871C3.38669 24.7437 12.4135 10.4062 30.0625 10.4062C47.6688 10.4062 56.7384 24.7437 56.8286 24.8883C56.9966 25.133 57.2524 25.3036 57.5428 25.3649C57.8333 25.4263 58.1362 25.3735 58.3888 25.2176C58.6414 25.0617 58.8244 24.8147 58.8999 24.5276C58.9754 24.2405 58.9375 23.9353 58.7942 23.6754C56.4907 20.2288 53.596 17.2167 50.2437 14.778L54.0871 9.97266C54.182 9.85407 54.2526 9.71795 54.2949 9.57207C54.3372 9.4262 54.3503 9.27341 54.3336 9.12246C54.3168 8.9715 54.2705 8.82531 54.1973 8.69226C54.124 8.5592 54.0253 8.44187 53.9067 8.34697C53.7881 8.25207 53.652 8.18145 53.5061 8.13916C53.3603 8.09686 53.2075 8.08372 53.0565 8.10047C52.9056 8.11721 52.7594 8.16353 52.6263 8.23678C52.4933 8.31002 52.3759 8.40876 52.281 8.52734L48.3348 13.4599C43.2245 10.1499 37.3047 8.30393 31.2188 8.12266V2.3125C31.2188 2.00584 31.097 1.71175 30.8801 1.49491C30.6633 1.27807 30.3692 1.15625 30.0625 1.15625C29.7559 1.15625 29.4618 1.27807 29.2449 1.49491C29.0281 1.71175 28.9063 2.00584 28.9063 2.3125V8.12266C22.8192 8.3033 16.8981 10.1493 11.7868 13.4599L7.84056 8.52734C7.6489 8.28785 7.36995 8.13429 7.06508 8.10047C6.7602 8.06664 6.45437 8.15531 6.21487 8.34697C5.97538 8.53863 5.82182 8.81758 5.788 9.12246C5.75417 9.42733 5.84284 9.73316 6.0345 9.97266L9.87903 14.778C6.52609 17.2159 3.63126 20.2282 1.32856 23.6754C1.24891 23.8047 1.19551 23.9484 1.1714 24.0983C1.14729 24.2482 1.15296 24.4014 1.18807 24.5492C1.22318 24.6969 1.28705 24.8363 1.37603 24.9594C1.46501 25.0824 1.57735 25.1867 1.70666 25.2664Z" fill="#151A6A"/>
</svg>
