<svg width="74" height="74" viewBox="0 0 74 74" fill="none" xmlns="http://www.w3.org/2000/svg">
<path d="M18.8411 60.125H38.9714L38.2776 52.0312H19.5348L18.8411 60.125Z" fill="#C4A2FC"/>
<path d="M42.2956 43.9375H15.5168L18.8203 49.7188H38.9922L42.2956 43.9375Z" fill="#C4A2FC"/>
<path d="M39.3125 62.4375H18.5C17.58 62.4375 16.6977 62.803 16.0472 63.4535C15.3967 64.104 15.0312 64.9863 15.0312 65.9062V71.6875C15.0312 71.9942 15.1531 72.2883 15.3699 72.5051C15.5867 72.7219 15.8808 72.8438 16.1875 72.8438H41.625C41.9317 72.8438 42.2258 72.7219 42.4426 72.5051C42.6594 72.2883 42.7812 71.9942 42.7812 71.6875V65.9062C42.7812 64.9863 42.4158 64.104 41.7653 63.4535C41.1148 62.803 40.2325 62.4375 39.3125 62.4375Z" fill="#C4A2FC"/>
<path d="M41.625 31.2188H37C36.6933 31.2188 36.3992 31.3406 36.1824 31.5574C35.9656 31.7742 35.8438 32.0683 35.8438 32.375V35.8438H32.375V32.375C32.375 32.0683 32.2532 31.7742 32.0363 31.5574C31.8195 31.3406 31.5254 31.2188 31.2188 31.2188H26.5938C26.2871 31.2188 25.993 31.3406 25.7762 31.5574C25.5593 31.7742 25.4375 32.0683 25.4375 32.375V35.8438H21.9688V32.375C21.9688 32.0683 21.8469 31.7742 21.6301 31.5574C21.4133 31.3406 21.1192 31.2188 20.8125 31.2188H16.1875C15.8808 31.2188 15.5867 31.3406 15.3699 31.5574C15.1531 31.7742 15.0312 32.0683 15.0312 32.375V41.625H42.7812V32.375C42.7812 32.0683 42.6594 31.7742 42.4426 31.5574C42.2258 31.3406 41.9317 31.2188 41.625 31.2188Z" fill="#C4A2FC"/>
<path d="M49.7188 45.0938H68.2188C68.8321 45.0938 69.4203 44.8501 69.8539 44.4164C70.2876 43.9828 70.5312 43.3946 70.5312 42.7812V39.3125C70.5312 38.6992 70.2876 38.111 69.8539 37.6773C69.4203 37.2436 68.8321 37 68.2188 37H49.7188C49.1054 37 48.5172 37.2436 48.0836 37.6773C47.6499 38.111 47.4062 38.6992 47.4062 39.3125V42.7812C47.4062 43.3946 47.6499 43.9828 48.0836 44.4164C48.5172 44.8501 49.1054 45.0938 49.7188 45.0938Z" fill="#C4A2FC"/>
<path d="M50.4391 47.4062L48.9822 60.125H68.9552L67.4984 47.4062H50.4391Z" fill="#C4A2FC"/>
<path d="M54.3021 34.6881H63.6354C64.8204 34.7018 65.9636 34.2509 66.8203 33.432C67.6769 32.6132 68.1789 31.4915 68.2188 30.3071V30.2076C68.2188 26.1607 63.5938 21.8687 61.1101 19.8465C61.4425 19.4808 61.6752 19.0359 61.7858 18.5543C61.8965 18.0728 61.8814 17.5709 61.7421 17.0968C61.6027 16.6228 61.3438 16.1926 60.9901 15.8475C60.6364 15.5025 60.2 15.2543 59.7226 15.1267C59.1208 14.9628 58.482 14.9985 57.9022 15.2286C57.3225 15.4586 56.8329 15.8705 56.5072 16.4024C56.1814 16.9344 56.037 17.5576 56.0955 18.1786C56.1541 18.7996 56.4125 19.3848 56.832 19.8465C54.3438 21.8687 49.7188 26.1642 49.7188 30.2076V30.3071C49.7586 31.4915 50.2606 32.6132 51.1172 33.432C51.9739 34.2509 53.1171 34.7018 54.3021 34.6881Z" fill="#C4A2FC"/>
<path d="M69.375 62.4375H48.5625C47.6425 62.4375 46.7602 62.803 46.1097 63.4535C45.4592 64.104 45.0938 64.9863 45.0938 65.9062V71.6875C45.0938 71.9942 45.2156 72.2883 45.4324 72.5051C45.6492 72.7219 45.9433 72.8438 46.25 72.8438H71.6875C71.9942 72.8438 72.2883 72.7219 72.5051 72.5051C72.7219 72.2883 72.8438 71.9942 72.8438 71.6875V65.9062C72.8438 64.9863 72.4783 64.104 71.8278 63.4535C71.1773 62.803 70.295 62.4375 69.375 62.4375Z" fill="#C4A2FC"/>
<path d="M46.25 1.15625H4.625C3.70503 1.15625 2.82274 1.52171 2.17222 2.17222C1.52171 2.82274 1.15625 3.70503 1.15625 4.625V46.25C1.15625 47.17 1.52171 48.0523 2.17222 48.7028C2.82274 49.3533 3.70503 49.7188 4.625 49.7188H46.25C47.17 49.7188 48.0523 49.3533 48.7028 48.7028C49.3533 48.0523 49.7188 47.17 49.7188 46.25V4.625C49.7188 3.70503 49.3533 2.82274 48.7028 2.17222C48.0523 1.52171 47.17 1.15625 46.25 1.15625ZM47.4062 46.25C47.4062 46.5567 47.2844 46.8508 47.0676 47.0676C46.8508 47.2844 46.5567 47.4062 46.25 47.4062H4.625C4.31834 47.4062 4.02425 47.2844 3.80741 47.0676C3.59057 46.8508 3.46875 46.5567 3.46875 46.25V4.625C3.46875 4.31834 3.59057 4.02425 3.80741 3.80741C4.02425 3.59057 4.31834 3.46875 4.625 3.46875H46.25C46.5567 3.46875 46.8508 3.59057 47.0676 3.80741C47.2844 4.02425 47.4062 4.31834 47.4062 4.625V46.25Z" fill="#151A6A"/>
<path d="M37.3308 14.5607L35.926 18.071C35.8696 18.2121 35.8416 18.3629 35.8436 18.5148C35.8455 18.6666 35.8773 18.8166 35.9373 18.9562C35.9972 19.0958 36.084 19.2222 36.1928 19.3282C36.3015 19.4343 36.4301 19.5178 36.5712 19.5742C36.7122 19.6305 36.863 19.6585 37.0149 19.6566C37.1668 19.6546 37.3168 19.6228 37.4563 19.5629C37.5959 19.503 37.7223 19.4162 37.8284 19.3074C37.9344 19.1986 38.018 19.07 38.0743 18.929L40.3868 13.1477C40.477 12.9111 40.4887 12.6517 40.4202 12.4079C40.3517 12.1641 40.2066 11.9488 40.0064 11.7938L35.3814 8.325C35.1361 8.14101 34.8277 8.06201 34.5241 8.10538C34.2205 8.14874 33.9466 8.31093 33.7626 8.55626C33.5786 8.80158 33.4996 9.10995 33.543 9.41352C33.5864 9.7171 33.7486 9.99101 33.9939 10.175L36.814 12.2898C30.265 14.4452 24.3888 18.2658 19.7617 23.377C15.1346 28.4881 11.9156 34.7143 10.4203 41.4446C10.3723 41.7476 10.4466 42.0573 10.6269 42.3054C10.8072 42.5536 11.0787 42.72 11.3817 42.768C11.6847 42.816 11.9943 42.7416 12.2425 42.5613C12.4906 42.381 12.657 42.1095 12.705 41.8066C14.1224 35.5318 17.1331 29.7282 21.4466 24.9558C25.7601 20.1833 31.2308 16.6032 37.3308 14.5607Z" fill="#151A6A"/>
<path d="M40.1299 23.4635C39.9131 23.2468 39.619 23.125 39.3125 23.125C39.0059 23.125 38.7118 23.2468 38.495 23.4635L35.8437 26.1148L33.1924 23.4635C32.9744 23.2529 32.6823 23.1364 32.3791 23.139C32.0759 23.1416 31.7859 23.2632 31.5716 23.4776C31.3572 23.692 31.2356 23.982 31.233 24.2852C31.2303 24.5883 31.3469 24.8804 31.5575 25.0985L34.2088 27.7498L31.5575 30.401C31.3469 30.6191 31.2303 30.9112 31.233 31.2143C31.2356 31.5175 31.3572 31.8075 31.5716 32.0219C31.7859 32.2363 32.0759 32.3579 32.3791 32.3605C32.6823 32.3631 32.9744 32.2466 33.1924 32.036L35.8437 29.3847L38.495 32.036C38.7131 32.2466 39.0051 32.3631 39.3083 32.3605C39.6115 32.3579 39.9015 32.2363 40.1158 32.0219C40.3302 31.8075 40.4518 31.5175 40.4544 31.2143C40.4571 30.9112 40.3405 30.6191 40.1299 30.401L37.4786 27.7498L40.1299 25.0985C40.3467 24.8816 40.4685 24.5876 40.4685 24.281C40.4685 23.9744 40.3467 23.6804 40.1299 23.4635Z" fill="#151A6A"/>
<path d="M15.6094 19.6562C16.6385 19.6562 17.6444 19.3511 18.5001 18.7794C19.3557 18.2076 20.0226 17.395 20.4164 16.4443C20.8102 15.4935 20.9133 14.4474 20.7125 13.438C20.5118 12.4287 20.0162 11.5016 19.2885 10.774C18.5609 10.0463 17.6338 9.55074 16.6245 9.34998C15.6151 9.14922 14.569 9.25225 13.6182 9.64607C12.6675 10.0399 11.8549 10.7068 11.2831 11.5624C10.7114 12.4181 10.4062 13.424 10.4062 14.4531C10.4078 15.8326 10.9565 17.1552 11.9319 18.1306C12.9073 19.106 14.2299 19.6547 15.6094 19.6562ZM15.6094 11.5625C16.1811 11.5625 16.74 11.732 17.2153 12.0497C17.6907 12.3673 18.0612 12.8187 18.28 13.3469C18.4987 13.8751 18.556 14.4563 18.4445 15.0171C18.3329 15.5778 18.0576 16.0928 17.6534 16.4971C17.2491 16.9014 16.734 17.1767 16.1733 17.2882C15.6126 17.3997 15.0314 17.3425 14.5032 17.1237C13.975 16.9049 13.5235 16.5344 13.2059 16.0591C12.8883 15.5837 12.7188 15.0248 12.7188 14.4531C12.7188 13.6865 13.0233 12.9512 13.5654 12.4091C14.1075 11.867 14.8427 11.5625 15.6094 11.5625Z" fill="#151A6A"/>
<path d="M24.8594 33.5312C23.8303 33.5312 22.8243 33.8364 21.9687 34.4081C21.113 34.9799 20.4461 35.7925 20.0523 36.7432C19.6585 37.694 19.5555 38.7402 19.7562 39.7495C19.957 40.7588 20.4525 41.6859 21.1802 42.4135C21.9079 43.1412 22.835 43.6368 23.8443 43.8375C24.8536 44.0383 25.8998 43.9353 26.8505 43.5414C27.8013 43.1476 28.6139 42.4807 29.1856 41.6251C29.7573 40.7694 30.0625 39.7635 30.0625 38.7344C30.061 37.3549 29.5123 36.0323 28.5369 35.0569C27.5614 34.0815 26.2389 33.5328 24.8594 33.5312ZM24.8594 41.625C24.2877 41.625 23.7288 41.4555 23.2534 41.1378C22.7781 40.8202 22.4076 40.3688 22.1888 39.8406C21.97 39.3124 21.9128 38.7312 22.0243 38.1704C22.1358 37.6097 22.4111 37.0947 22.8154 36.6904C23.2197 36.2861 23.7347 36.0108 24.2954 35.8993C24.8562 35.7878 25.4374 35.845 25.9656 36.0638C26.4938 36.2826 26.9452 36.6531 27.2628 37.1284C27.5805 37.6038 27.75 38.1627 27.75 38.7344C27.75 39.114 27.6752 39.4899 27.53 39.8406C27.3847 40.1913 27.1718 40.5099 26.9034 40.7784C26.6349 41.0468 26.3163 41.2597 25.9656 41.405C25.6149 41.5502 25.239 41.625 24.8594 41.625Z" fill="#151A6A"/>
</svg>
