<svg width="97" height="97" viewBox="0 0 97 97" fill="none" xmlns="http://www.w3.org/2000/svg">
<circle cx="48.5" cy="48.5" r="48.5" fill="#300684"/>
<path fill-rule="evenodd" clip-rule="evenodd" d="M43.0208 31C43.4526 31 43.8731 31.1383 44.2206 31.3947C44.2393 31.4088 44.2577 31.4233 44.2759 31.4381L66.3393 47.4824C66.3406 47.4837 66.3419 47.4851 66.3432 47.4864L66.3748 47.5101C66.9343 47.885 67.2703 48.514 67.2708 49.1875C67.2703 49.8661 66.9293 50.4991 66.363 50.8728L44.2206 66.9803C43.8731 67.2367 43.4526 67.375 43.0208 67.375C41.9047 67.375 40.9999 66.4702 40.9999 65.3542C40.9999 65.3515 40.9999 65.3489 40.9999 65.3463V49.1875V33.0287C40.9999 33.0261 40.9999 33.0235 40.9999 33.0208C40.9999 31.9048 41.9047 31 43.0208 31Z" fill="#9674DD"/>
</svg>
