<svg width="481" height="184" viewBox="0 0 481 184" fill="none" xmlns="http://www.w3.org/2000/svg">
<path d="M148.11 70.23H147.89C146.449 70.23 145.28 71.3985 145.28 72.84V129.53C145.28 130.971 146.449 132.14 147.89 132.14H148.11C149.551 132.14 150.72 130.971 150.72 129.53V72.84C150.72 71.3985 149.551 70.23 148.11 70.23Z" fill="#9674DD"/>
<path d="M156.89 74.5903H156.67C155.229 74.5903 154.06 75.7589 154.06 77.2003V105.96C154.06 107.402 155.229 108.57 156.67 108.57H156.89C158.332 108.57 159.5 107.402 159.5 105.96V77.2003C159.5 75.7589 158.332 74.5903 156.89 74.5903Z" fill="#9674DD"/>
<path d="M121.55 69.9199H121.77C122.462 69.9199 123.126 70.1949 123.615 70.6844C124.105 71.1738 124.38 71.8377 124.38 72.5299V100.91C124.38 101.207 124.321 101.501 124.208 101.775C124.094 102.049 123.928 102.298 123.718 102.508C123.508 102.718 123.259 102.884 122.985 102.998C122.711 103.111 122.417 103.17 122.12 103.17H121.2C120.903 103.17 120.609 103.111 120.335 102.998C120.061 102.884 119.812 102.718 119.602 102.508C119.392 102.298 119.226 102.049 119.112 101.775C118.998 101.501 118.94 101.207 118.94 100.91V72.5299C118.94 71.8377 119.215 71.1738 119.704 70.6844C120.194 70.1949 120.858 69.9199 121.55 69.9199Z" fill="#9674DD"/>
<path d="M235.9 36.8604H235.68C234.239 36.8604 233.07 38.0289 233.07 39.4704V88.2403C233.07 89.6818 234.239 90.8503 235.68 90.8503H235.9C237.342 90.8503 238.51 89.6818 238.51 88.2403V39.4704C238.51 38.0289 237.342 36.8604 235.9 36.8604Z" fill="#9674DD"/>
<path d="M235.9 20.0801H235.68C234.239 20.0801 233.07 21.2486 233.07 22.6901V30.7501C233.07 32.1915 234.239 33.3601 235.68 33.3601H235.9C237.342 33.3601 238.51 32.1915 238.51 30.7501V22.6901C238.51 21.2486 237.342 20.0801 235.9 20.0801Z" fill="#9674DD"/>
<path d="M235.9 92.4102H235.68C234.239 92.4102 233.07 93.5787 233.07 95.0201V158.5C233.07 159.942 234.239 161.11 235.68 161.11H235.9C237.342 161.11 238.51 159.942 238.51 158.5V95.0201C238.51 93.5787 237.342 92.4102 235.9 92.4102Z" fill="#9674DD"/>
<path d="M244.68 52.3701H244.46C243.019 52.3701 241.85 53.5387 241.85 54.9801V128.18C241.85 129.622 243.019 130.79 244.46 130.79H244.68C246.122 130.79 247.29 129.622 247.29 128.18V54.9801C247.29 53.5387 246.122 52.3701 244.68 52.3701Z" fill="#9674DD"/>
<path d="M227.12 29.4502H226.9C225.459 29.4502 224.29 30.6187 224.29 32.0602V64.1102C224.29 65.5517 225.459 66.7202 226.9 66.7202H227.12C228.562 66.7202 229.73 65.5517 229.73 64.1102V32.0602C229.73 30.6187 228.562 29.4502 227.12 29.4502Z" fill="#9674DD"/>
<path d="M227.12 69.0303H226.9C225.459 69.0303 224.29 70.1988 224.29 71.6403V169.37C224.29 170.812 225.459 171.98 226.9 171.98H227.12C228.562 171.98 229.73 170.812 229.73 169.37V71.6403C229.73 70.1988 228.562 69.0303 227.12 69.0303Z" fill="#9674DD"/>
<path d="M130.33 69.3604H130.55C130.894 69.3616 131.235 69.4311 131.553 69.5647C131.87 69.6984 132.158 69.8935 132.4 70.1389C132.641 70.3843 132.832 70.6752 132.961 70.9946C133.09 71.3141 133.154 71.6559 133.15 72.0004V113.4C133.15 114 132.912 114.575 132.488 114.998C132.064 115.422 131.489 115.66 130.89 115.66H130C129.401 115.66 128.826 115.422 128.402 114.998C127.978 114.575 127.74 114 127.74 113.4V72.0004C127.736 71.6568 127.8 71.3158 127.928 70.9969C128.056 70.6781 128.246 70.3877 128.487 70.1425C128.727 69.8972 129.014 69.7018 129.33 69.5676C129.647 69.4334 129.986 69.363 130.33 69.3604Z" fill="#9674DD"/>
<path d="M130.33 54.4199H130.55C131.235 54.4225 131.892 54.6945 132.379 55.1772C132.865 55.66 133.142 56.3146 133.15 56.9999V64.8399C133.15 65.4393 132.912 66.0142 132.488 66.438C132.064 66.8618 131.489 67.0999 130.89 67.0999H130C129.401 67.0999 128.826 66.8618 128.402 66.438C127.978 66.0142 127.74 65.4393 127.74 64.8399V56.9999C127.748 56.3164 128.024 55.6632 128.508 55.1807C128.992 54.6983 129.646 54.4251 130.33 54.4199Z" fill="#9674DD"/>
<path d="M209.34 157.88H209.56C211.001 157.88 212.17 156.711 212.17 155.27L212.17 2.60988C212.17 1.16841 211.001 -0.00012207 209.56 -0.00012207H209.34C207.898 -0.00012207 206.73 1.16841 206.73 2.60988L206.73 155.27C206.73 156.711 207.898 157.88 209.34 157.88Z" fill="#9674DD"/>
<path d="M209.34 183.19H209.56C211.001 183.19 212.17 182.021 212.17 180.58V163.28C212.17 161.838 211.001 160.67 209.56 160.67H209.34C207.898 160.67 206.73 161.838 206.73 163.28V180.58C206.73 182.021 207.898 183.19 209.34 183.19Z" fill="#9674DD"/>
<path d="M183.01 170.81H183.23C184.672 170.81 185.84 169.642 185.84 168.2L185.84 14.94C185.84 13.4986 184.672 12.33 183.23 12.33H183.01C181.569 12.33 180.4 13.4986 180.4 14.94L180.4 168.2C180.4 169.642 181.569 170.81 183.01 170.81Z" fill="#9674DD"/>
<path d="M191.78 112.36H192C193.442 112.36 194.61 111.192 194.61 109.75V35.1104C194.61 33.6689 193.442 32.5004 192 32.5004H191.78C190.339 32.5004 189.17 33.6689 189.17 35.1104V109.75C189.17 111.192 190.339 112.36 191.78 112.36Z" fill="#9674DD"/>
<path d="M191.78 152.93H192C193.442 152.93 194.61 151.762 194.61 150.32V116.53C194.61 115.089 193.442 113.92 192 113.92H191.78C190.339 113.92 189.17 115.089 189.17 116.53V150.32C189.17 151.762 190.339 152.93 191.78 152.93Z" fill="#9674DD"/>
<path d="M200.56 169.07H200.78C202.221 169.07 203.39 167.902 203.39 166.46V58.6803C203.39 57.2389 202.221 56.0703 200.78 56.0703H200.56C199.118 56.0703 197.95 57.2389 197.95 58.6803V166.46C197.95 167.902 199.118 169.07 200.56 169.07Z" fill="#9674DD"/>
<path d="M200.56 53.4102H200.78C202.221 53.4102 203.39 52.2416 203.39 50.8002V28.4302C203.39 26.9887 202.221 25.8202 200.78 25.8202H200.56C199.118 25.8202 197.95 26.9887 197.95 28.4302V50.8002C197.95 52.2416 199.118 53.4102 200.56 53.4102Z" fill="#9674DD"/>
<path d="M200.56 23.1499H200.78C202.221 23.1499 203.39 21.9814 203.39 20.5399V12.9499C203.39 11.5084 202.221 10.3399 200.78 10.3399H200.56C199.118 10.3399 197.95 11.5084 197.95 12.9499V20.5399C197.95 21.9814 199.118 23.1499 200.56 23.1499Z" fill="#9674DD"/>
<path d="M174.22 138.23H174.44C175.882 138.23 177.05 137.061 177.05 135.62V47.53C177.05 46.0885 175.882 44.92 174.44 44.92H174.22C172.779 44.92 171.61 46.0885 171.61 47.53V135.62C171.61 137.061 172.779 138.23 174.22 138.23Z" fill="#9674DD"/>
<path d="M218.12 146.9H218.34C219.781 146.9 220.95 145.731 220.95 144.29V38.8599C220.95 37.4184 219.781 36.2499 218.34 36.2499H218.12C216.678 36.2499 215.51 37.4184 215.51 38.8599V144.29C215.51 145.731 216.678 146.9 218.12 146.9Z" fill="#9674DD"/>
<path d="M165.67 63.8003H165.45C164.009 63.8003 162.84 64.9688 162.84 66.4103V116.75C162.84 118.192 164.009 119.36 165.45 119.36H165.67C167.112 119.36 168.28 118.192 168.28 116.75V66.4103C168.28 64.9688 167.112 63.8003 165.67 63.8003Z" fill="#9674DD"/>
<path d="M112.99 78.8301H112.77C111.328 78.8301 110.16 79.9986 110.16 81.4401V91.6401C110.16 93.0815 111.328 94.2501 112.77 94.2501H112.99C114.431 94.2501 115.6 93.0815 115.6 91.6401V81.4401C115.6 79.9986 114.431 78.8301 112.99 78.8301Z" fill="#9674DD"/>
<path d="M367.48 77.7603H367.26C365.818 77.7603 364.65 78.9288 364.65 80.3703V90.5703C364.65 92.0117 365.818 93.1803 367.26 93.1803H367.48C368.921 93.1803 370.09 92.0117 370.09 90.5703V80.3703C370.09 78.9288 368.921 77.7603 367.48 77.7603Z" fill="#9674DD"/>
<path d="M139.11 40.6201H139.33C140.022 40.6201 140.686 40.8951 141.176 41.3846C141.665 41.874 141.94 42.5379 141.94 43.2301V97.6501C141.94 98.2495 141.702 98.8243 141.278 99.2482C140.854 99.672 140.279 99.9101 139.68 99.9101H138.76C138.161 99.9101 137.586 99.672 137.162 99.2482C136.738 98.8243 136.5 98.2495 136.5 97.6501V43.2301C136.5 42.5379 136.775 41.874 137.264 41.3846C137.754 40.8951 138.418 40.6201 139.11 40.6201Z" fill="#9674DD"/>
<path d="M139.11 103.17H139.33C140.022 103.17 140.686 103.445 141.176 103.934C141.665 104.424 141.94 105.088 141.94 105.78V134.08C141.94 134.679 141.702 135.254 141.278 135.678C140.854 136.102 140.279 136.34 139.68 136.34H138.76C138.161 136.34 137.586 136.102 137.162 135.678C136.738 135.254 136.5 134.679 136.5 134.08V105.78C136.5 105.088 136.775 104.424 137.264 103.934C137.754 103.445 138.418 103.17 139.11 103.17Z" fill="#9674DD"/>
<path d="M323.7 21.8799H323.48C322.039 21.8799 320.87 23.0484 320.87 24.4899V161.29C320.87 162.731 322.039 163.9 323.48 163.9H323.7C325.142 163.9 326.31 162.731 326.31 161.29V24.4899C326.31 23.0484 325.142 21.8799 323.7 21.8799Z" fill="#9674DD"/>
<path d="M279.8 80.6602H279.58C278.138 80.6602 276.97 81.8287 276.97 83.2701V151.91C276.97 153.352 278.138 154.52 279.58 154.52H279.8C281.241 154.52 282.41 153.352 282.41 151.91V83.2701C282.41 81.8287 281.241 80.6602 279.8 80.6602Z" fill="#9674DD"/>
<path d="M332.48 42.8301H332.26C330.818 42.8301 329.65 43.9986 329.65 45.4401V109.84C329.65 111.282 330.818 112.45 332.26 112.45H332.48C333.921 112.45 335.09 111.282 335.09 109.84V45.4401C335.09 43.9986 333.921 42.8301 332.48 42.8301Z" fill="#9674DD"/>
<path d="M332.48 114.99H332.26C330.818 114.99 329.65 116.159 329.65 117.6V138C329.65 139.442 330.818 140.61 332.26 140.61H332.48C333.921 140.61 335.09 139.442 335.09 138V117.6C335.09 116.159 333.921 114.99 332.48 114.99Z" fill="#9674DD"/>
<path d="M314.92 60.9902H314.7C313.259 60.9902 312.09 62.1588 312.09 63.6002V75.1502C312.09 76.5917 313.259 77.7602 314.7 77.7602H314.92C316.362 77.7602 317.53 76.5917 317.53 75.1502V63.6002C317.53 62.1588 316.362 60.9902 314.92 60.9902Z" fill="#9674DD"/>
<path d="M314.92 81.8301H314.7C313.259 81.8301 312.09 82.9986 312.09 84.4401V177.02C312.09 178.462 313.259 179.63 314.7 179.63H314.92C316.362 179.63 317.53 178.462 317.53 177.02V84.4401C317.53 82.9986 316.362 81.8301 314.92 81.8301Z" fill="#9674DD"/>
<path d="M306.14 79.5801H305.92C304.479 79.5801 303.31 80.7486 303.31 82.1901V153C303.31 154.442 304.479 155.61 305.92 155.61H306.14C307.582 155.61 308.75 154.442 308.75 153V82.1901C308.75 80.7486 307.582 79.5801 306.14 79.5801Z" fill="#9674DD"/>
<path d="M341.26 80.6602H341.04C339.598 80.6602 338.43 81.8287 338.43 83.2701V141.63C338.43 143.072 339.598 144.24 341.04 144.24H341.26C342.701 144.24 343.87 143.072 343.87 141.63V83.2701C343.87 81.8287 342.701 80.6602 341.26 80.6602Z" fill="#9674DD"/>
<path d="M288.58 74.2603H288.36C286.919 74.2603 285.75 75.4288 285.75 76.8703V118.04C285.75 119.482 286.919 120.65 288.36 120.65H288.58C290.021 120.65 291.19 119.482 291.19 118.04V76.8703C291.19 75.4288 290.021 74.2603 288.58 74.2603Z" fill="#9674DD"/>
<path d="M288.58 122.45H288.36C286.919 122.45 285.75 123.619 285.75 125.06V168.46C285.75 169.902 286.919 171.07 288.36 171.07H288.58C290.021 171.07 291.19 169.902 291.19 168.46V125.06C291.19 123.619 290.021 122.45 288.58 122.45Z" fill="#9674DD"/>
<path d="M262.24 68.1602H262.02C260.578 68.1602 259.41 69.3287 259.41 70.7701V112.38C259.41 113.822 260.578 114.99 262.02 114.99H262.24C263.681 114.99 264.85 113.822 264.85 112.38V70.7701C264.85 69.3287 263.681 68.1602 262.24 68.1602Z" fill="#9674DD"/>
<path d="M253.46 54.6499H253.24C251.798 54.6499 250.63 55.8184 250.63 57.2599V125.9C250.63 127.341 251.798 128.51 253.24 128.51H253.46C254.901 128.51 256.07 127.341 256.07 125.9V57.2599C256.07 55.8184 254.901 54.6499 253.46 54.6499Z" fill="#9674DD"/>
<path d="M271.02 89.71H270.8C269.358 89.71 268.19 90.8785 268.19 92.32V142.87C268.19 144.311 269.358 145.48 270.8 145.48H271.02C272.461 145.48 273.63 144.311 273.63 142.87V92.32C273.63 90.8785 272.461 89.71 271.02 89.71Z" fill="#9674DD"/>
<path d="M297.36 90.21H297.14C295.699 90.21 294.53 91.3785 294.53 92.82V142.36C294.53 143.801 295.699 144.97 297.14 144.97H297.36C298.801 144.97 299.97 143.801 299.97 142.36V92.82C299.97 91.3785 298.801 90.21 297.36 90.21Z" fill="#9674DD"/>
<path d="M358.82 69.0503H358.6C357.159 69.0503 355.99 70.2188 355.99 71.6603V99.2703C355.99 100.712 357.159 101.88 358.6 101.88H358.82C360.261 101.88 361.43 100.712 361.43 99.2703V71.6603C361.43 70.2188 360.261 69.0503 358.82 69.0503Z" fill="#9674DD"/>
<path d="M350.04 63.9902H349.82C348.379 63.9902 347.21 65.1588 347.21 66.6002V91.9802C347.21 93.4217 348.379 94.5902 349.82 94.5902H350.04C351.481 94.5902 352.65 93.4217 352.65 91.9802V66.6002C352.65 65.1588 351.481 63.9902 350.04 63.9902Z" fill="#9674DD"/>
<path d="M350.04 96.3799H349.82C348.379 96.3799 347.21 97.5484 347.21 98.9899V109.07C347.21 110.511 348.379 111.68 349.82 111.68H350.04C351.481 111.68 352.65 110.511 352.65 109.07V98.9899C352.65 97.5484 351.481 96.3799 350.04 96.3799Z" fill="#9674DD"/>
<path d="M148 72.6602C147.643 72.6602 147.29 72.7306 146.961 72.8674C146.631 73.0042 146.332 73.2047 146.08 73.4574C145.828 73.7101 145.629 74.0101 145.493 74.34C145.358 74.67 145.289 75.0234 145.29 75.3801V124.79C145.267 125.161 145.321 125.532 145.447 125.881C145.574 126.23 145.77 126.549 146.024 126.819C146.278 127.089 146.585 127.305 146.926 127.452C147.267 127.599 147.634 127.675 148.005 127.675C148.376 127.675 148.743 127.599 149.084 127.452C149.424 127.305 149.731 127.089 149.986 126.819C150.24 126.549 150.436 126.23 150.563 125.881C150.689 125.532 150.742 125.161 150.72 124.79V75.3801C150.72 74.6588 150.433 73.9669 149.923 73.4568C149.413 72.9467 148.721 72.6602 148 72.6602Z" fill="#FF7100"/>
<path d="M156.77 76.53C156.413 76.53 156.06 76.6005 155.731 76.7373C155.401 76.8741 155.102 77.0746 154.85 77.3273C154.598 77.58 154.399 77.8799 154.263 78.2099C154.128 78.5398 154.059 78.8933 154.06 79.25V103.91C154.059 104.267 154.128 104.62 154.263 104.95C154.399 105.28 154.598 105.58 154.85 105.833C155.102 106.085 155.401 106.286 155.731 106.423C156.06 106.56 156.413 106.63 156.77 106.63C157.491 106.63 158.183 106.343 158.693 105.833C159.204 105.323 159.49 104.631 159.49 103.91V79.25C159.49 78.5286 159.204 77.8368 158.693 77.3267C158.183 76.8166 157.491 76.53 156.77 76.53Z" fill="#FF7100"/>
<path d="M121.66 72.3901C120.939 72.3901 120.247 72.6767 119.737 73.1868C119.227 73.6969 118.94 74.3887 118.94 75.1101V99.4901C118.94 100.114 119.187 100.713 119.628 101.155C120.068 101.598 120.666 101.847 121.29 101.85H122C122.624 101.847 123.222 101.598 123.662 101.155C124.103 100.713 124.35 100.114 124.35 99.4901V75.1101C124.353 74.3931 124.071 73.7043 123.567 73.1945C123.063 72.6846 122.377 72.3954 121.66 72.3901Z" fill="#FF7100"/>
<path d="M235.79 43.1101C235.069 43.1101 234.377 43.3967 233.867 43.9068C233.357 44.4169 233.07 45.1087 233.07 45.8301V88.2201C233.07 88.9415 233.357 89.6333 233.867 90.1434C234.377 90.6535 235.069 90.9401 235.79 90.9401C236.511 90.9401 237.203 90.6535 237.713 90.1434C238.223 89.6333 238.51 88.9415 238.51 88.2201V45.8301C238.51 45.1087 238.223 44.4169 237.713 43.9068C237.203 43.3967 236.511 43.1101 235.79 43.1101Z" fill="#FF7100"/>
<path d="M235.79 28.2402C235.43 28.2402 235.073 28.3119 234.74 28.451C234.407 28.5902 234.106 28.7942 233.852 29.051C233.599 29.3078 233.4 29.6124 233.266 29.947C233.131 30.2817 233.065 30.6397 233.07 31.0002V37.3302C233.081 38.0438 233.372 38.7243 233.881 39.2242C234.391 39.7241 235.077 40.0029 235.79 40.0002C236.147 40.0016 236.5 39.9324 236.83 39.7968C237.16 39.6612 237.46 39.4618 237.713 39.21C237.966 38.9583 238.166 38.6591 238.303 38.3296C238.44 38.0002 238.51 37.647 238.51 37.2902V31.0002C238.515 30.6397 238.449 30.2817 238.315 29.947C238.18 29.6124 237.981 29.3078 237.728 29.051C237.475 28.7942 237.173 28.5902 236.84 28.451C236.508 28.3119 236.151 28.2402 235.79 28.2402Z" fill="#FF7100"/>
<path d="M235.79 92.3201C235.076 92.32 234.39 92.6011 233.881 93.1025C233.372 93.604 233.081 94.2856 233.07 95.0001V150.42C233.07 151.141 233.357 151.833 233.867 152.343C234.377 152.854 235.069 153.14 235.79 153.14C236.511 153.14 237.203 152.854 237.713 152.343C238.223 151.833 238.51 151.141 238.51 150.42V95.0001C238.5 94.2856 238.208 93.604 237.699 93.1025C237.19 92.6011 236.505 92.32 235.79 92.3201Z" fill="#FF7100"/>
<path d="M244.57 56.8401C243.849 56.8401 243.157 57.1267 242.647 57.6368C242.137 58.1469 241.85 58.8387 241.85 59.5601V123.56C241.85 124.281 242.137 124.973 242.647 125.483C243.157 125.994 243.849 126.28 244.57 126.28C245.291 126.28 245.983 125.994 246.493 125.483C247.004 124.973 247.29 124.281 247.29 123.56V59.5601C247.29 58.8387 247.004 58.1469 246.493 57.6368C245.983 57.1267 245.291 56.8401 244.57 56.8401Z" fill="#FF7100"/>
<path d="M227 36.54C226.279 36.54 225.587 36.8266 225.077 37.3367C224.567 37.8468 224.28 38.5386 224.28 39.26V66.85C224.28 67.5714 224.567 68.2633 225.077 68.7734C225.587 69.2835 226.279 69.57 227 69.57C227.721 69.57 228.413 69.2835 228.923 68.7734C229.433 68.2633 229.72 67.5714 229.72 66.85V39.26C229.72 38.5386 229.433 37.8468 228.923 37.3367C228.413 36.8266 227.721 36.54 227 36.54Z" fill="#FF7100"/>
<path d="M227 71.6001C226.279 71.6001 225.587 71.8867 225.077 72.3968C224.567 72.9069 224.28 73.5987 224.28 74.3201V160.09C224.28 160.811 224.567 161.503 225.077 162.013C225.587 162.524 226.279 162.81 227 162.81C227.721 162.81 228.413 162.524 228.923 162.013C229.433 161.503 229.72 160.811 229.72 160.09V74.3201C229.72 73.5987 229.433 72.9069 228.923 72.3968C228.413 71.8867 227.721 71.6001 227 71.6001Z" fill="#FF7100"/>
<path d="M130.43 71.9002C129.711 71.9002 129.022 72.1857 128.514 72.6939C128.005 73.2021 127.72 73.8914 127.72 74.6102V110.61C127.72 111.233 127.968 111.831 128.408 112.272C128.849 112.713 129.447 112.96 130.07 112.96H130.8C131.423 112.96 132.021 112.713 132.462 112.272C132.902 111.831 133.15 111.233 133.15 110.61V74.6102C133.15 74.2534 133.08 73.9002 132.943 73.5708C132.806 73.2413 132.605 72.9421 132.353 72.6904C132.1 72.4386 131.8 72.2392 131.47 72.1036C131.14 71.968 130.787 71.8988 130.43 71.9002Z" fill="#FF7100"/>
<path d="M130.43 58.6702C129.711 58.6702 129.022 58.9557 128.514 59.4639C128.005 59.9722 127.72 60.6615 127.72 61.3802V67.5702C127.72 68.1934 127.968 68.7912 128.408 69.2319C128.849 69.6726 129.447 69.9202 130.07 69.9202H130.8C131.423 69.9202 132.021 69.6726 132.462 69.2319C132.902 68.7912 133.15 68.1934 133.15 67.5702V61.3802C133.15 61.0235 133.08 60.6702 132.943 60.3408C132.806 60.0114 132.605 59.7122 132.353 59.4604C132.1 59.2086 131.8 59.0092 131.47 58.8736C131.14 58.738 130.787 58.6689 130.43 58.6702Z" fill="#FF7100"/>
<path d="M209.45 10.4502C208.729 10.4502 208.037 10.7368 207.527 11.2469C207.017 11.757 206.73 12.4488 206.73 13.1702V147.6C206.73 148.322 207.017 149.013 207.527 149.524C208.037 150.034 208.729 150.32 209.45 150.32C210.171 150.32 210.863 150.034 211.373 149.524C211.883 149.013 212.17 148.322 212.17 147.6V13.1702C212.17 12.4488 211.883 11.757 211.373 11.2469C210.863 10.7368 210.171 10.4502 209.45 10.4502Z" fill="#FF7100"/>
<path d="M209.45 152.79C208.729 152.79 208.037 153.077 207.527 153.587C207.017 154.097 206.73 154.789 206.73 155.51V170C206.73 170.721 207.017 171.413 207.527 171.923C208.037 172.433 208.729 172.72 209.45 172.72C210.171 172.72 210.863 172.433 211.373 171.923C211.883 171.413 212.17 170.721 212.17 170V155.51C212.17 154.789 211.883 154.097 211.373 153.587C210.863 153.077 210.171 152.79 209.45 152.79Z" fill="#FF7100"/>
<path d="M183.11 21.3801C182.389 21.3801 181.697 21.6667 181.187 22.1768C180.676 22.6869 180.39 23.3787 180.39 24.1001V159.1C180.39 159.822 180.676 160.513 181.187 161.023C181.697 161.534 182.389 161.82 183.11 161.82C183.831 161.82 184.523 161.534 185.033 161.023C185.543 160.513 185.83 159.822 185.83 159.1V24.1001C185.83 23.3787 185.543 22.6869 185.033 22.1768C184.523 21.6667 183.831 21.3801 183.11 21.3801Z" fill="#FF7100"/>
<path d="M191.89 39.25C191.53 39.2487 191.173 39.3191 190.841 39.4572C190.508 39.5953 190.206 39.7982 189.953 40.0543C189.7 40.3103 189.5 40.6143 189.366 40.9483C189.231 41.2824 189.165 41.6399 189.17 42V107.32C189.17 108.041 189.457 108.733 189.967 109.243C190.477 109.753 191.169 110.04 191.89 110.04C192.611 110.04 193.303 109.753 193.813 109.243C194.323 108.733 194.61 108.041 194.61 107.32V42C194.615 41.6399 194.549 41.2824 194.414 40.9483C194.28 40.6143 194.08 40.3103 193.827 40.0543C193.574 39.7982 193.272 39.5953 192.939 39.4572C192.607 39.3191 192.25 39.2487 191.89 39.25Z" fill="#FF7100"/>
<path d="M191.89 111.38C191.169 111.38 190.477 111.667 189.967 112.177C189.456 112.687 189.17 113.379 189.17 114.1V143.22C189.17 143.942 189.456 144.633 189.967 145.143C190.477 145.654 191.169 145.94 191.89 145.94C192.611 145.94 193.303 145.654 193.813 145.143C194.323 144.633 194.61 143.942 194.61 143.22V114.1C194.61 113.379 194.323 112.687 193.813 112.177C193.303 111.667 192.611 111.38 191.89 111.38Z" fill="#FF7100"/>
<path d="M200.67 60.1301C199.957 60.1432 199.278 60.4355 198.779 60.9442C198.28 61.4529 198 62.1373 198 62.8501V157.52C198 158.241 198.287 158.933 198.797 159.443C199.307 159.954 199.999 160.24 200.72 160.24C201.441 160.24 202.133 159.954 202.643 159.443C203.153 158.933 203.44 158.241 203.44 157.52V62.8501C203.44 62.4887 203.368 62.1308 203.228 61.7975C203.088 61.4642 202.884 61.1621 202.626 60.9089C202.368 60.6556 202.062 60.4563 201.726 60.3226C201.39 60.1889 201.031 60.1235 200.67 60.1301Z" fill="#FF7100"/>
<path d="M200.67 57.77C201.391 57.77 202.083 57.4834 202.593 56.9733C203.103 56.4632 203.39 55.7714 203.39 55.05V36C203.301 35.3484 202.979 34.7511 202.484 34.3187C201.988 33.8862 201.353 33.6479 200.695 33.6479C200.037 33.6479 199.402 33.8862 198.906 34.3187C198.411 34.7511 198.089 35.3484 198 36V55C197.993 55.3572 198.057 55.7122 198.188 56.0448C198.318 56.3773 198.513 56.6809 198.761 56.9381C199.009 57.1954 199.305 57.4012 199.633 57.544C199.96 57.6867 200.313 57.7635 200.67 57.77Z" fill="#FF7100"/>
<path d="M200.67 31.0001C201.391 31.0001 202.083 30.7135 202.593 30.2034C203.103 29.6933 203.39 29.0015 203.39 28.2801V22.3301C203.39 21.6087 203.103 20.9169 202.593 20.4068C202.083 19.8967 201.391 19.6101 200.67 19.6101C199.949 19.6101 199.257 19.8967 198.747 20.4068C198.237 20.9169 197.95 21.6087 197.95 22.3301V28.2401C197.945 28.6007 198.011 28.9587 198.145 29.2933C198.28 29.6279 198.479 29.9325 198.732 30.1893C198.986 30.4462 199.287 30.6501 199.62 30.7893C199.952 30.9285 200.309 31.0001 200.67 31.0001Z" fill="#FF7100"/>
<path d="M174.33 50.25C173.971 50.25 173.615 50.3214 173.284 50.4601C172.952 50.5987 172.652 50.802 172.399 51.0579C172.147 51.3137 171.949 51.6172 171.815 51.9507C171.681 52.2841 171.615 52.6408 171.62 53V130.23C171.598 130.6 171.651 130.972 171.777 131.32C171.904 131.669 172.1 131.989 172.354 132.259C172.609 132.529 172.915 132.745 173.256 132.892C173.597 133.039 173.964 133.115 174.335 133.115C174.706 133.115 175.073 133.039 175.414 132.892C175.755 132.745 176.061 132.529 176.316 132.259C176.57 131.989 176.766 131.669 176.893 131.32C177.019 130.972 177.072 130.6 177.05 130.23V53C177.055 52.6399 176.989 52.2824 176.854 51.9483C176.72 51.6143 176.52 51.3103 176.267 51.0543C176.014 50.7982 175.712 50.5953 175.379 50.4572C175.047 50.3191 174.69 50.2487 174.33 50.25Z" fill="#FF7100"/>
<path d="M218.23 42.5701C217.509 42.5701 216.817 42.8566 216.307 43.3667C215.797 43.8768 215.51 44.5687 215.51 45.2901V137.87C215.51 138.591 215.797 139.283 216.307 139.793C216.817 140.304 217.509 140.59 218.23 140.59C218.951 140.59 219.643 140.304 220.153 139.793C220.663 139.283 220.95 138.591 220.95 137.87V45.2901C220.95 44.5687 220.663 43.8768 220.153 43.3667C219.643 42.8566 218.951 42.5701 218.23 42.5701Z" fill="#FF7100"/>
<path d="M165.55 67C165.193 67 164.84 67.0704 164.511 67.2072C164.181 67.3441 163.882 67.5446 163.63 67.7973C163.378 68.05 163.179 68.3499 163.043 68.6799C162.908 69.0098 162.839 69.3633 162.84 69.72V113.5C162.817 113.87 162.871 114.241 162.997 114.59C163.124 114.939 163.32 115.259 163.574 115.529C163.829 115.799 164.135 116.015 164.476 116.162C164.817 116.309 165.184 116.385 165.555 116.385C165.926 116.385 166.293 116.309 166.634 116.162C166.974 116.015 167.281 115.799 167.536 115.529C167.79 115.259 167.986 114.939 168.113 114.59C168.239 114.241 168.292 113.87 168.27 113.5V69.69C168.262 68.9738 167.972 68.2897 167.463 67.786C166.954 67.2824 166.266 67 165.55 67Z" fill="#FF7100"/>
<path d="M112.88 80.29C112.16 80.29 111.47 80.5752 110.96 81.0832C110.45 81.5911 110.163 82.2804 110.16 83V84.76H1.4C1.0287 84.76 0.672601 84.9075 0.410051 85.1701C0.1475 85.4326 0 85.7887 0 86.16C0 86.5313 0.1475 86.8874 0.410051 87.15C0.672601 87.4125 1.0287 87.56 1.4 87.56H110.16V91.22C110.152 91.5823 110.216 91.9424 110.35 92.2794C110.483 92.6163 110.682 92.9233 110.935 93.1823C111.189 93.4412 111.491 93.647 111.825 93.7874C112.159 93.9278 112.518 94.0001 112.88 94C113.237 94 113.59 93.9296 113.919 93.7928C114.249 93.656 114.548 93.4555 114.8 93.2028C115.052 92.9501 115.251 92.6501 115.387 92.3202C115.522 91.9902 115.591 91.6368 115.59 91.28V83C115.59 82.2813 115.304 81.592 114.796 81.0838C114.288 80.5756 113.599 80.29 112.88 80.29Z" fill="#FF7100"/>
<path d="M139.21 46.4402C138.491 46.4402 137.802 46.7257 137.294 47.2339C136.786 47.7422 136.5 48.4315 136.5 49.1502V96.6102C136.495 96.9222 136.552 97.232 136.667 97.5218C136.783 97.8115 136.955 98.0754 137.174 98.2978C137.393 98.5203 137.654 98.697 137.941 98.8176C138.229 98.9382 138.538 99.0003 138.85 99.0002H139.58C140.203 99.0002 140.801 98.7526 141.242 98.3119C141.683 97.8712 141.93 97.2735 141.93 96.6502V49.1502C141.93 48.7935 141.86 48.4403 141.723 48.1108C141.586 47.7814 141.386 47.4822 141.133 47.2304C140.88 46.9786 140.58 46.7792 140.25 46.6436C139.92 46.508 139.567 46.4389 139.21 46.4402Z" fill="#FF7100"/>
<path d="M139.21 101.85C138.491 101.85 137.802 102.136 137.294 102.644C136.786 103.152 136.5 103.841 136.5 104.56V128.88C136.5 129.503 136.748 130.101 137.188 130.542C137.629 130.983 138.227 131.23 138.85 131.23H139.58C140.203 131.23 140.801 130.983 141.242 130.542C141.682 130.101 141.93 129.503 141.93 128.88V104.56C141.93 104.203 141.86 103.85 141.723 103.521C141.586 103.191 141.385 102.892 141.133 102.64C140.88 102.389 140.58 102.189 140.25 102.054C139.92 101.918 139.567 101.849 139.21 101.85Z" fill="#FF7100"/>
<path d="M323.59 29.8301C323.233 29.8301 322.879 29.9004 322.549 30.0371C322.219 30.1738 321.919 30.3742 321.667 30.6267C321.414 30.8793 321.214 31.1792 321.077 31.5092C320.94 31.8392 320.87 32.1929 320.87 32.5501V152.93C320.848 153.3 320.901 153.672 321.027 154.02C321.154 154.369 321.35 154.689 321.604 154.959C321.859 155.229 322.165 155.445 322.506 155.592C322.847 155.739 323.214 155.815 323.585 155.815C323.956 155.815 324.323 155.739 324.664 155.592C325.005 155.445 325.311 155.229 325.566 154.959C325.82 154.689 326.016 154.369 326.143 154.02C326.269 153.672 326.322 153.3 326.3 152.93V32.5501C326.301 32.1934 326.232 31.8399 326.097 31.5099C325.961 31.18 325.762 30.8801 325.51 30.6274C325.258 30.3746 324.959 30.1741 324.629 30.0373C324.3 29.9005 323.947 29.8301 323.59 29.8301Z" fill="#FF7100"/>
<path d="M279.69 81.9101C278.974 81.918 278.29 82.208 277.786 82.7173C277.282 83.2265 277 83.9139 277 84.6301V144.63C277 145.351 277.287 146.043 277.797 146.553C278.307 147.064 278.999 147.35 279.72 147.35C280.441 147.35 281.133 147.064 281.643 146.553C282.153 146.043 282.44 145.351 282.44 144.63V84.6301C282.44 84.2703 282.369 83.9142 282.23 83.5822C282.092 83.2502 281.889 82.949 281.633 82.6961C281.377 82.4431 281.074 82.2434 280.74 82.1084C280.407 81.9735 280.05 81.9061 279.69 81.9101Z" fill="#FF7100"/>
<path d="M332.37 48.4002C332.013 48.3988 331.66 48.468 331.33 48.6036C331 48.7392 330.7 48.9386 330.447 49.1904C330.195 49.4421 329.994 49.7413 329.857 50.0708C329.72 50.4002 329.65 50.7534 329.65 51.1102V107.35C329.628 107.721 329.681 108.092 329.807 108.441C329.934 108.79 330.13 109.109 330.384 109.379C330.639 109.649 330.946 109.865 331.286 110.012C331.627 110.159 331.994 110.235 332.365 110.235C332.736 110.235 333.103 110.159 333.444 110.012C333.785 109.865 334.091 109.649 334.346 109.379C334.6 109.109 334.796 108.79 334.923 108.441C335.049 108.092 335.103 107.721 335.08 107.35V51.1102C335.08 50.7543 335.01 50.4019 334.874 50.0731C334.738 49.7443 334.538 49.4456 334.286 49.1939C334.035 48.9423 333.736 48.7426 333.407 48.6064C333.078 48.4703 332.726 48.4002 332.37 48.4002Z" fill="#FF7100"/>
<path d="M332.37 112.32C331.649 112.32 330.957 112.607 330.447 113.117C329.937 113.627 329.65 114.319 329.65 115.04V132.3C329.628 132.67 329.681 133.042 329.807 133.39C329.934 133.739 330.13 134.059 330.384 134.329C330.639 134.599 330.946 134.815 331.286 134.962C331.627 135.109 331.994 135.185 332.365 135.185C332.736 135.185 333.103 135.109 333.444 134.962C333.785 134.815 334.091 134.599 334.346 134.329C334.6 134.059 334.796 133.739 334.923 133.39C335.049 133.042 335.103 132.67 335.08 132.3V115C335.072 114.287 334.783 113.605 334.276 113.103C333.768 112.601 333.084 112.32 332.37 112.32Z" fill="#FF7100"/>
<path d="M314.81 64.4802C314.453 64.4802 314.099 64.5506 313.769 64.6873C313.439 64.824 313.139 65.0243 312.887 65.2769C312.634 65.5295 312.434 65.8293 312.297 66.1593C312.16 66.4893 312.09 66.843 312.09 67.2002V76.6202C312.067 76.9906 312.121 77.3617 312.247 77.7106C312.374 78.0596 312.57 78.379 312.824 78.6492C313.079 78.9194 313.385 79.1348 313.726 79.282C314.067 79.4291 314.434 79.5051 314.805 79.5051C315.176 79.5051 315.543 79.4291 315.884 79.282C316.224 79.1348 316.531 78.9194 316.786 78.6492C317.04 78.379 317.236 78.0596 317.363 77.7106C317.489 77.3617 317.542 76.9906 317.52 76.6202V67.2002C317.521 66.8435 317.452 66.49 317.317 66.1601C317.181 65.8301 316.982 65.5302 316.73 65.2775C316.478 65.0248 316.179 64.8243 315.849 64.6875C315.52 64.5506 315.167 64.4802 314.81 64.4802Z" fill="#FF7100"/>
<path d="M314.81 82.9402C314.453 82.9402 314.099 83.0105 313.769 83.1472C313.439 83.2839 313.139 83.4843 312.887 83.7369C312.634 83.9894 312.434 84.2893 312.297 84.6193C312.16 84.9493 312.09 85.303 312.09 85.6602V166.87C312.09 167.227 312.16 167.581 312.297 167.911C312.434 168.241 312.634 168.541 312.887 168.794C313.139 169.046 313.439 169.246 313.769 169.383C314.099 169.52 314.453 169.59 314.81 169.59C315.167 169.59 315.52 169.52 315.849 169.383C316.179 169.246 316.478 169.046 316.73 168.793C316.982 168.54 317.181 168.24 317.317 167.91C317.452 167.58 317.521 167.227 317.52 166.87V85.6602C317.521 85.3035 317.452 84.95 317.317 84.62C317.181 84.2901 316.982 83.9902 316.73 83.7375C316.478 83.4848 316.179 83.2842 315.849 83.1474C315.52 83.0106 315.167 82.9402 314.81 82.9402Z" fill="#FF7100"/>
<path d="M306 81C305.279 81 304.587 81.2866 304.077 81.7967C303.567 82.3068 303.28 82.9986 303.28 83.72V145.64C303.322 146.332 303.626 146.981 304.131 147.456C304.635 147.931 305.302 148.195 305.995 148.195C306.688 148.195 307.355 147.931 307.859 147.456C308.364 146.981 308.668 146.332 308.71 145.64V83.67C308.7 82.9582 308.409 82.2792 307.902 81.7795C307.395 81.2799 306.712 80.9999 306 81Z" fill="#FF7100"/>
<path d="M341.15 81.9102C340.429 81.9102 339.737 82.1967 339.227 82.7068C338.717 83.2169 338.43 83.9088 338.43 84.6301V135.51C338.408 135.881 338.461 136.252 338.587 136.601C338.714 136.95 338.91 137.269 339.164 137.539C339.419 137.809 339.726 138.025 340.066 138.172C340.407 138.319 340.774 138.395 341.145 138.395C341.516 138.395 341.883 138.319 342.224 138.172C342.565 138.025 342.872 137.809 343.126 137.539C343.38 137.269 343.576 136.95 343.703 136.601C343.829 136.252 343.883 135.881 343.86 135.51V84.6301C343.861 84.2734 343.792 83.92 343.657 83.59C343.521 83.2601 343.322 82.9601 343.07 82.7074C342.818 82.4547 342.519 82.2542 342.189 82.1174C341.86 81.9806 341.507 81.9102 341.15 81.9102Z" fill="#FF7100"/>
<path d="M288.47 76.24C288.109 76.2386 287.751 76.3094 287.418 76.4481C287.085 76.5868 286.783 76.7907 286.529 77.0478C286.276 77.3049 286.076 77.61 285.943 77.9452C285.809 78.2805 285.743 78.6391 285.75 79V114.66C285.75 115.381 286.037 116.073 286.547 116.583C287.057 117.093 287.749 117.38 288.47 117.38C289.191 117.38 289.883 117.093 290.393 116.583C290.903 116.073 291.19 115.381 291.19 114.66V79C291.197 78.6391 291.131 78.2805 290.997 77.9452C290.863 77.61 290.664 77.3049 290.411 77.0478C290.157 76.7907 289.855 76.5868 289.522 76.4481C289.189 76.3094 288.831 76.2386 288.47 76.24Z" fill="#FF7100"/>
<path d="M288.47 118.93C287.749 118.93 287.057 119.217 286.547 119.727C286.037 120.237 285.75 120.929 285.75 121.65V159.29C285.75 159.647 285.82 160 285.957 160.33C286.094 160.659 286.295 160.958 286.547 161.21C286.8 161.462 287.1 161.661 287.43 161.797C287.76 161.932 288.113 162.001 288.47 162C288.827 162.001 289.18 161.932 289.51 161.797C289.84 161.661 290.14 161.462 290.393 161.21C290.645 160.958 290.846 160.659 290.983 160.33C291.12 160 291.19 159.647 291.19 159.29V121.65C291.19 120.929 290.903 120.237 290.393 119.727C289.883 119.217 289.191 118.93 288.47 118.93Z" fill="#FF7100"/>
<path d="M262.13 70.8401C261.773 70.8401 261.419 70.9104 261.089 71.0471C260.759 71.1838 260.459 71.3842 260.207 71.6368C259.954 71.8893 259.754 72.1892 259.617 72.5192C259.48 72.8492 259.41 73.2029 259.41 73.5601V109.56C259.41 110.281 259.696 110.973 260.207 111.483C260.717 111.994 261.409 112.28 262.13 112.28C262.851 112.28 263.543 111.994 264.053 111.483C264.563 110.973 264.85 110.281 264.85 109.56V73.5601C264.85 72.8387 264.563 72.1469 264.053 71.6368C263.543 71.1267 262.851 70.8401 262.13 70.8401Z" fill="#FF7100"/>
<path d="M253.35 58.8601C252.628 58.8601 251.937 59.1467 251.427 59.6568C250.916 60.1669 250.63 60.8587 250.63 61.5801V121.58C250.63 121.937 250.7 122.291 250.837 122.621C250.974 122.951 251.174 123.251 251.427 123.503C251.679 123.756 251.979 123.956 252.309 124.093C252.639 124.23 252.993 124.3 253.35 124.3C253.707 124.3 254.061 124.23 254.391 124.093C254.721 123.956 255.021 123.756 255.273 123.503C255.526 123.251 255.726 122.951 255.863 122.621C256 122.291 256.07 121.937 256.07 121.58V61.5801C256.07 60.8587 255.783 60.1669 255.273 59.6568C254.763 59.1467 254.071 58.8601 253.35 58.8601Z" fill="#FF7100"/>
<path d="M270.91 89.9202C270.189 89.9202 269.497 90.2067 268.987 90.7168C268.477 91.2269 268.19 91.9188 268.19 92.6402V136.64C268.19 137.362 268.477 138.053 268.987 138.563C269.497 139.074 270.189 139.36 270.91 139.36C271.631 139.36 272.323 139.074 272.833 138.563C273.343 138.053 273.63 137.362 273.63 136.64V92.6402C273.63 91.9188 273.343 91.2269 272.833 90.7168C272.323 90.2067 271.631 89.9202 270.91 89.9202Z" fill="#FF7100"/>
<path d="M297.25 90.3701C296.529 90.3701 295.837 90.6567 295.327 91.1668C294.817 91.6769 294.53 92.3687 294.53 93.0901V136.16C294.53 136.882 294.817 137.573 295.327 138.083C295.837 138.594 296.529 138.88 297.25 138.88C297.971 138.88 298.663 138.594 299.173 138.083C299.683 137.573 299.97 136.882 299.97 136.16V93.0901C299.97 92.3687 299.683 91.6769 299.173 91.1668C298.663 90.6567 297.971 90.3701 297.25 90.3701Z" fill="#FF7100"/>
<path d="M358.7 71.6302C357.983 71.6328 357.296 71.9195 356.79 72.4275C356.284 72.9354 356 73.6232 356 74.3402V98.0002C355.978 98.3706 356.031 98.7417 356.157 99.0906C356.284 99.4396 356.48 99.759 356.734 100.029C356.989 100.299 357.296 100.515 357.636 100.662C357.977 100.809 358.344 100.885 358.715 100.885C359.086 100.885 359.453 100.809 359.794 100.662C360.135 100.515 360.442 100.299 360.696 100.029C360.95 99.759 361.147 99.4396 361.273 99.0906C361.399 98.7417 361.453 98.3706 361.43 98.0002V74.3402C361.43 73.9826 361.359 73.6286 361.222 73.2985C361.085 72.9684 360.883 72.6687 360.629 72.4168C360.376 72.1649 360.074 71.9657 359.743 71.8307C359.412 71.6957 359.058 71.6276 358.7 71.6302Z" fill="#FF7100"/>
<path d="M349.93 67.1401C349.573 67.1401 349.219 67.2105 348.889 67.3472C348.559 67.4839 348.259 67.6842 348.007 67.9368C347.754 68.1894 347.554 68.4892 347.417 68.8192C347.28 69.1492 347.21 69.5029 347.21 69.8601V91.5301C347.188 91.9005 347.241 92.2716 347.367 92.6206C347.494 92.9695 347.69 93.2889 347.944 93.5591C348.199 93.8293 348.506 94.0447 348.846 94.1919C349.187 94.3391 349.554 94.415 349.925 94.415C350.296 94.415 350.663 94.3391 351.004 94.1919C351.345 94.0447 351.652 93.8293 351.906 93.5591C352.16 93.2889 352.356 92.9695 352.483 92.6206C352.609 92.2716 352.663 91.9005 352.64 91.5301V69.8601C352.641 69.5034 352.572 69.1499 352.437 68.82C352.301 68.49 352.102 68.1901 351.85 67.9374C351.598 67.6847 351.299 67.4842 350.969 67.3474C350.64 67.2106 350.287 67.1401 349.93 67.1401Z" fill="#FF7100"/>
<path d="M349.93 95.8301C349.573 95.8301 349.219 95.9004 348.889 96.0371C348.559 96.1738 348.259 96.3742 348.007 96.6267C347.754 96.8793 347.554 97.1792 347.417 97.5092C347.28 97.8392 347.21 98.1929 347.21 98.5501V106.67C347.188 107.04 347.241 107.412 347.367 107.76C347.494 108.109 347.69 108.429 347.944 108.699C348.199 108.969 348.506 109.185 348.846 109.332C349.187 109.479 349.554 109.555 349.925 109.555C350.296 109.555 350.663 109.479 351.004 109.332C351.345 109.185 351.652 108.969 351.906 108.699C352.16 108.429 352.356 108.109 352.483 107.76C352.609 107.412 352.663 107.04 352.64 106.67V98.5501C352.641 98.1934 352.572 97.8399 352.437 97.5099C352.301 97.18 352.102 96.8801 351.85 96.6273C351.598 96.3746 351.299 96.1741 350.969 96.0373C350.64 95.9005 350.287 95.8301 349.93 95.8301Z" fill="#FF7100"/>
<path d="M478.84 84.7701H370.08V82.0601C370.103 81.6897 370.049 81.3187 369.923 80.9697C369.796 80.6208 369.6 80.3014 369.346 80.0312C369.091 79.7609 368.785 79.5456 368.444 79.3984C368.103 79.2512 367.736 79.1753 367.365 79.1753C366.994 79.1753 366.627 79.2512 366.286 79.3984C365.946 79.5456 365.639 79.7609 365.384 80.0312C365.13 80.3014 364.934 80.6208 364.807 80.9697C364.681 81.3187 364.628 81.6897 364.65 82.0601V90.2801C364.628 90.6505 364.681 91.0216 364.807 91.3706C364.934 91.7195 365.13 92.0389 365.384 92.3091C365.639 92.5794 365.946 92.7947 366.286 92.9419C366.627 93.0891 366.994 93.165 367.365 93.165C367.736 93.165 368.103 93.0891 368.444 92.9419C368.785 92.7947 369.091 92.5794 369.346 92.3091C369.6 92.0389 369.796 91.7195 369.923 91.3706C370.049 91.0216 370.103 90.6505 370.08 90.2801V87.5701H478.84C479.211 87.5701 479.567 87.4226 479.83 87.1601C480.093 86.8975 480.24 86.5414 480.24 86.1701C480.24 85.7988 480.093 85.4427 479.83 85.1802C479.567 84.9176 479.211 84.7701 478.84 84.7701Z" fill="#FF7100"/>
</svg>
