<svg width="74" height="74" viewBox="0 0 74 74" fill="none" xmlns="http://www.w3.org/2000/svg">
<path d="M69.9531 63.5938V25.4375C69.9531 24.5175 69.5877 23.6352 68.9371 22.9847C68.2866 22.3342 67.4043 21.9688 66.4844 21.9688H43.3594C42.4394 21.9688 41.5571 22.3342 40.9066 22.9847C40.2561 23.6352 39.8906 24.5175 39.8906 25.4375V63.5938H69.9531ZM47.9844 43.9375C48.291 43.9375 48.5851 44.0593 48.802 44.2762C49.0188 44.493 49.1406 44.7871 49.1406 45.0938C49.1406 46.2372 49.4797 47.3549 50.1149 48.3056C50.7502 49.2564 51.6531 49.9974 52.7095 50.4349C53.7659 50.8725 54.9283 50.987 56.0497 50.7639C57.1712 50.5408 58.2013 49.9902 59.0098 49.1817C59.8184 48.3732 60.369 47.3431 60.592 46.2216C60.8151 45.1002 60.7006 43.9377 60.2631 42.8814C59.8255 41.825 59.0845 40.9221 58.1338 40.2868C57.183 39.6516 56.0653 39.3125 54.9219 39.3125H54.2397L55.7428 40.8041C55.9605 41.0218 56.0829 41.3171 56.0829 41.625C56.0829 41.9329 55.9605 42.2282 55.7428 42.4459C55.5251 42.6637 55.2298 42.786 54.9219 42.786C54.614 42.786 54.3187 42.6637 54.1009 42.4459L50.6322 38.9772C50.5238 38.8697 50.4378 38.7418 50.3791 38.6009C50.3204 38.46 50.2902 38.3089 50.2902 38.1562C50.2902 38.0036 50.3204 37.8525 50.3791 37.7116C50.4378 37.5707 50.5238 37.4428 50.6322 37.3353L54.1009 33.8666C54.2087 33.7588 54.3367 33.6732 54.4776 33.6149C54.6184 33.5565 54.7694 33.5265 54.9219 33.5265C55.0743 33.5265 55.2253 33.5565 55.3662 33.6149C55.507 33.6732 55.635 33.7588 55.7428 33.8666C55.8506 33.9744 55.9361 34.1024 55.9945 34.2432C56.0528 34.3841 56.0829 34.535 56.0829 34.6875C56.0829 34.84 56.0528 34.9909 55.9945 35.1318C55.9361 35.2726 55.8506 35.4006 55.7428 35.5084L54.2397 37H54.9219C56.5227 37 58.0875 37.4747 59.4185 38.364C60.7495 39.2534 61.7869 40.5175 62.3995 41.9964C63.0121 43.4753 63.1724 45.1027 62.8601 46.6728C62.5478 48.2428 61.777 49.685 60.645 50.8169C59.5131 51.9488 58.0709 52.7197 56.5009 53.032C54.9309 53.3443 53.3035 53.184 51.8245 52.5714C50.3456 51.9588 49.0815 50.9214 48.1922 49.5904C47.3028 48.2594 46.8281 46.6945 46.8281 45.0938C46.8281 44.7871 46.9499 44.493 47.1668 44.2762C47.3836 44.0593 47.6777 43.9375 47.9844 43.9375ZM69.9531 65.9062V69.375C69.9531 70.295 69.5877 71.1773 68.9371 71.8278C68.2866 72.4783 67.4043 72.8438 66.4844 72.8438H43.3594C42.4394 72.8438 41.5571 72.4783 40.9066 71.8278C40.2561 71.1773 39.8906 70.295 39.8906 69.375V65.9062H69.9531Z" fill="#C4A2FC"/>
<path d="M58.3906 1.15625H7.51562C6.59566 1.15625 5.71337 1.52171 5.06285 2.17222C4.41233 2.82274 4.04688 3.70503 4.04688 4.625V41.625C4.04688 42.545 4.41233 43.4273 5.06285 44.0778C5.71337 44.7283 6.59566 45.0938 7.51562 45.0938H25.8075L23.8766 56.6562H22.5469C22.2402 56.6562 21.9461 56.7781 21.7293 56.9949C21.5124 57.2117 21.3906 57.5058 21.3906 57.8125C21.3906 58.1192 21.5124 58.4133 21.7293 58.6301C21.9461 58.8469 22.2402 58.9688 22.5469 58.9688H43.9375C44.2442 58.9688 44.5383 58.8469 44.7551 58.6301C44.9719 58.4133 45.0938 58.1192 45.0938 57.8125C45.0938 57.5058 44.9719 57.2117 44.7551 56.9949C44.5383 56.7781 44.2442 56.6562 43.9375 56.6562H42.0297L40.0988 45.0938H58.3906C59.3106 45.0938 60.1929 44.7283 60.8434 44.0778C61.4939 43.4273 61.8594 42.545 61.8594 41.625V4.625C61.8594 3.70503 61.4939 2.82274 60.8434 2.17222C60.1929 1.52171 59.3106 1.15625 58.3906 1.15625ZM39.6825 56.6562H26.2238L28.1547 45.0938H37.7516L39.6825 56.6562ZM59.5469 41.625C59.5469 41.9317 59.4251 42.2258 59.2082 42.4426C58.9914 42.6594 58.6973 42.7812 58.3906 42.7812H7.51562C7.20897 42.7812 6.91487 42.6594 6.69803 42.4426C6.48119 42.2258 6.35938 41.9317 6.35938 41.625V4.625C6.35938 4.31834 6.48119 4.02425 6.69803 3.80741C6.91487 3.59057 7.20897 3.46875 7.51562 3.46875H58.3906C58.6973 3.46875 58.9914 3.59057 59.2082 3.80741C59.4251 4.02425 59.5469 4.31834 59.5469 4.625V41.625ZM44.5156 23.125C44.5156 23.4317 44.3938 23.7258 44.177 23.9426C43.9601 24.1594 43.666 24.2812 43.3594 24.2812C43.0527 24.2812 42.7586 24.1594 42.5418 23.9426C42.3249 23.7258 42.2031 23.4317 42.2031 23.125C42.2031 21.2955 41.6606 19.5071 40.6442 17.986C39.6278 16.4648 38.1832 15.2792 36.4929 14.5791C34.8027 13.879 32.9429 13.6958 31.1485 14.0527C29.3542 14.4096 27.706 15.2906 26.4124 16.5843C25.1188 17.8779 24.2378 19.5261 23.8809 21.3204C23.5239 23.1147 23.7071 24.9746 24.4072 26.6648C25.1073 28.355 26.2929 29.7997 27.8141 30.8161C29.3353 31.8325 31.1236 32.375 32.9531 32.375H33.6353L32.1322 30.8834C31.9145 30.6657 31.7921 30.3704 31.7921 30.0625C31.7921 29.7546 31.9145 29.4593 32.1322 29.2416C32.3499 29.0238 32.6452 28.9015 32.9531 28.9015C33.261 28.9015 33.5563 29.0238 33.7741 29.2416L37.2428 32.7103C37.3512 32.8178 37.4372 32.9457 37.4959 33.0866C37.5546 33.2275 37.5848 33.3786 37.5848 33.5312C37.5848 33.6839 37.5546 33.835 37.4959 33.9759C37.4372 34.1168 37.3512 34.2447 37.2428 34.3522L33.7741 37.8209C33.5563 38.0387 33.261 38.161 32.9531 38.161C32.6452 38.161 32.3499 38.0387 32.1322 37.8209C31.9145 37.6032 31.7921 37.3079 31.7921 37C31.7921 36.6921 31.9145 36.3968 32.1322 36.1791L33.6353 34.6875H32.9531C30.6663 34.6875 28.4308 34.0094 26.5293 32.7389C24.6279 31.4684 23.1459 29.6625 22.2708 27.5498C21.3956 25.437 21.1667 23.1122 21.6128 20.8693C22.0589 18.6264 23.1602 16.5661 24.7772 14.9491C26.3942 13.332 28.4545 12.2308 30.6974 11.7847C32.9403 11.3385 35.2651 11.5675 37.3779 12.4426C39.4907 13.3178 41.2965 14.7998 42.567 16.7012C43.8375 18.6027 44.5156 20.8382 44.5156 23.125Z" fill="#151A6A"/>
</svg>
